<svg width="213.99999999999997" height="41" xmlns="http://www.w3.org/2000/svg" clip-rule="evenodd">
 <g>
  <title>background</title>
  <rect x="-1" y="-1" width="216" height="43" id="canvas_background" fill="#000000"/>
 </g>

 <g>
  <title>Layer 1</title>
  <g transform="matrix(1,0,0,1,-6.17284e-14,-226.072) " id="svg_1">
   <g transform="matrix(1,0,0,1,1645.1,-1876.94) " id="svg_2">
    <path d="m-1644.63,2129.12c-0.53,-2.98 -0.46,-6.13 0.32,-9.25c2.97,-11.91 15.03,-19.16 26.93,-16.19c11.41,2.84 18.54,14.03 16.51,25.44l-12.56,0c-0.12,-1.6 -1.12,-2.68 -2.63,-3.47c1.59,-0.36 2.79,-1.41 3.11,-3.58c0.44,-2.95 -1.81,-4.54 -4.89,-5.61l1,-4l-2.44,-0.61l-0.97,3.9c-0.64,-0.16 -1.3,-0.31 -1.95,-0.46l0.98,-3.92l-2.44,-0.61l-1,4c-0.53,-0.12 -1.05,-0.24 -1.56,-0.36l0,-0.02l-3.36,-0.84l-0.65,2.61c0,0 1.81,0.41 1.77,0.44c0.99,0.25 1.17,0.9 1.14,1.42l-1.14,4.56c0.07,0.02 0.16,0.04 0.26,0.08c-0.09,-0.02 -0.17,-0.04 -0.26,-0.06l-1.6,6.39c-0.01,0.05 -0.04,0.09 -0.06,0.14l-14.51,0zm19.04,0l0.9,-3.62c1.51,0.38 6.07,1.09 6.24,3.62l-7.14,0zm29.97,0l5.88,-24.75l8.72,-1.35l-3.48,14.51c0.74,-0.33 1.49,-0.6 2.24,-0.79c0.76,-0.18 1.56,-0.28 2.42,-0.28c1.8,0 3.36,0.32 4.67,0.96c1.32,0.64 2.4,1.5 3.27,2.59c0.86,1.09 1.5,2.36 1.91,3.82c0.41,1.47 0.62,3.04 0.62,4.73c0,0.18 -0.01,0.37 -0.01,0.56l-8.32,0c0,-1.77 -0.3,-3.16 -0.9,-4.17c-0.59,-1 -1.71,-1.51 -3.31,-1.51c-0.53,0 -1.21,0.1 -2.06,0.28c-0.84,0.19 -1.6,0.58 -2.28,1.18l-1.01,4.22l-8.36,0zm39.49,0l-8.36,0l2.86,-12.03l8.39,0l-2.89,12.03zm5.59,0l4.59,-19.4l8.72,-1.35l-2.14,8.72l9.34,0l-1.69,6.86l-9.28,0l-1.23,5.17l-8.31,0zm20.91,0c0.14,-0.49 0.3,-0.98 0.47,-1.46c0.82,-2.25 2.01,-4.22 3.55,-5.91c1.53,-1.68 3.4,-3.02 5.6,-3.99c2.19,-0.98 4.64,-1.47 7.34,-1.47c1.69,0 3.19,0.16 4.52,0.48c1.34,0.33 2.54,0.74 3.63,1.27l-2.87,6.53c-0.75,-0.31 -1.52,-0.58 -2.33,-0.82c-0.81,-0.25 -1.79,-0.37 -2.95,-0.37c-2.78,0 -4.98,0.96 -6.61,2.87c-0.71,0.83 -1.27,1.79 -1.67,2.87l-8.68,0zm25.43,0c0.06,-0.21 0.12,-0.41 0.19,-0.62c0.73,-2.25 1.81,-4.27 3.24,-6.07c1.41,-1.8 3.16,-3.27 5.22,-4.42c2.06,-1.14 4.43,-1.72 7.09,-1.72c1.95,0 3.67,0.31 5.15,0.91c1.48,0.59 2.7,1.44 3.66,2.53c0.95,1.09 1.67,2.37 2.16,3.85c0.49,1.48 0.73,3.12 0.73,4.92c0,0.21 0,0.41 -0.01,0.62l-8.31,0c-0.03,-1.76 -0.33,-3.15 -0.9,-4.16c-0.6,-1.05 -1.69,-1.58 -3.27,-1.58c-1.23,0 -2.32,0.36 -3.26,1.07c-0.93,0.72 -1.72,1.62 -2.36,2.7c-0.36,0.63 -0.68,1.28 -0.94,1.97l-8.39,0zm40.72,0l-8.37,0l2.86,-12.03l8.39,0l-2.88,12.03zm6.3,0l2.58,-10.69c0.63,-0.18 1.34,-0.4 2.1,-0.65c0.77,-0.24 1.64,-0.46 2.6,-0.66c0.95,-0.21 2.02,-0.38 3.2,-0.51c1.18,-0.14 2.53,-0.2 4.02,-0.2c4.39,0 7.42,1.27 9.09,3.82c1.47,2.24 1.87,5.21 1.21,8.89l-8.45,0c0.06,-0.31 0.11,-0.62 0.15,-0.93c0.13,-0.91 0.13,-1.72 -0.03,-2.42c-0.15,-0.69 -0.49,-1.25 -1.04,-1.69c-0.55,-0.43 -1.38,-0.64 -2.5,-0.64c-1.09,0 -2.19,0.11 -3.32,0.34l-1.27,5.34l-8.34,0zm-160.59,-7.09c-0.68,2.75 -4.93,1.35 -6.31,1.01l1.22,-4.87c1.38,0.34 5.81,0.99 5.09,3.86zm61.49,-8.55c-1.16,0 -2.22,-0.34 -3.15,-1.04c-0.94,-0.69 -1.41,-1.75 -1.41,-3.18c0,-0.78 0.16,-1.52 0.47,-2.22c0.33,-0.69 0.75,-1.29 1.27,-1.8c0.53,-0.5 1.14,-0.9 1.83,-1.21c0.7,-0.3 1.44,-0.45 2.23,-0.45c1.16,0 2.21,0.35 3.14,1.04c0.94,0.7 1.41,1.76 1.41,3.18c0,0.79 -0.16,1.53 -0.48,2.23c-0.32,0.69 -0.74,1.29 -1.26,1.8c-0.53,0.5 -1.14,0.9 -1.83,1.2c-0.7,0.31 -1.44,0.45 -2.22,0.45zm92.64,0c-1.16,0 -2.22,-0.34 -3.15,-1.04c-0.94,-0.69 -1.41,-1.75 -1.41,-3.18c0,-0.78 0.16,-1.52 0.48,-2.22c0.32,-0.69 0.74,-1.29 1.27,-1.8c0.52,-0.5 1.14,-0.9 1.83,-1.21c0.69,-0.3 1.43,-0.45 2.22,-0.45c1.16,0 2.21,0.35 3.15,1.04c0.93,0.7 1.41,1.76 1.41,3.18c0,0.79 -0.17,1.53 -0.49,2.23c-0.31,0.69 -0.73,1.29 -1.26,1.8c-0.53,0.5 -1.13,0.9 -1.82,1.2c-0.7,0.31 -1.44,0.45 -2.23,0.45z" fill-rule="nonzero" fill="white" id="svg_40"/>
   </g>
  </g>
  <text fill="#ffffff" stroke="#000" stroke-width="0" x="141.19077" y="39.07676" id="svg_41" font-size="13" font-family="'Trebuchet MS', Gadget, sans-serif" text-anchor="start" xml:space="preserve">H D A Y . I R</text>
 </g>
</svg>