<?xml version="1.0" encoding="UTF-8" standalone="no"?>
<!DOCTYPE svg PUBLIC "-//W3C//DTD SVG 1.1//EN" "http://www.w3.org/Graphics/SVG/1.1/DTD/svg11.dtd">
<svg width="100%" height="100%" viewBox="0 0 214 41" version="1.1" xmlns="http://www.w3.org/2000/svg" xmlns:xlink="http://www.w3.org/1999/xlink" xml:space="preserve" xmlns:serif="http://www.serif.com/" style="fill-rule:evenodd;clip-rule:evenodd;stroke-linejoin:round;stroke-miterlimit:2;">
    <g transform="matrix(1,0,0,1,-6.17284e-14,-226.072)">
        <g transform="matrix(1,0,0,1,1645.1,-1876.94)">
            <g transform="matrix(1,0,0,1,-63.5186,-43.2291)">
                <g transform="matrix(12.826,0,0,12.826,-1582.66,2186.4)">
                    <path d="M0.174,-0.398L0.236,-0.398C0.319,-0.398 0.36,-0.435 0.36,-0.51C0.36,-0.533 0.357,-0.553 0.35,-0.568C0.343,-0.583 0.333,-0.594 0.322,-0.603C0.311,-0.611 0.298,-0.617 0.283,-0.62C0.268,-0.623 0.252,-0.625 0.235,-0.625C0.225,-0.625 0.215,-0.625 0.205,-0.624C0.194,-0.623 0.184,-0.622 0.174,-0.621L0.174,-0.398ZM0.174,-0.326L0.174,-0.076C0.187,-0.074 0.199,-0.072 0.212,-0.071C0.224,-0.07 0.236,-0.069 0.248,-0.069C0.267,-0.069 0.284,-0.071 0.301,-0.075C0.318,-0.079 0.332,-0.086 0.345,-0.095C0.357,-0.104 0.367,-0.117 0.374,-0.134C0.381,-0.15 0.384,-0.17 0.384,-0.194C0.384,-0.235 0.373,-0.268 0.351,-0.291C0.328,-0.314 0.293,-0.326 0.246,-0.326L0.174,-0.326ZM0.084,-0.683C0.107,-0.688 0.131,-0.693 0.156,-0.696C0.18,-0.699 0.204,-0.7 0.228,-0.7C0.258,-0.7 0.287,-0.697 0.314,-0.692C0.341,-0.686 0.364,-0.676 0.385,-0.663C0.406,-0.649 0.422,-0.631 0.435,-0.609C0.447,-0.586 0.453,-0.558 0.453,-0.525C0.453,-0.484 0.444,-0.45 0.427,-0.424C0.41,-0.397 0.387,-0.378 0.36,-0.365C0.394,-0.352 0.422,-0.331 0.444,-0.304C0.466,-0.277 0.477,-0.239 0.477,-0.191C0.477,-0.155 0.471,-0.125 0.46,-0.1C0.448,-0.075 0.431,-0.055 0.41,-0.04C0.389,-0.024 0.363,-0.012 0.334,-0.006C0.304,0.002 0.271,0.005 0.236,0.005C0.213,0.005 0.188,0.004 0.163,0.001C0.138,-0.002 0.111,-0.006 0.084,-0.011L0.084,-0.683Z" style="fill:white;fill-rule:nonzero;"/>
                </g>
                <g transform="matrix(12.826,0,0,12.826,-1569.56,2186.4)">
                    <rect x="0.084" y="-0.693" width="0.09" height="0.693" style="fill:white;fill-rule:nonzero;"/>
                </g>
                <g transform="matrix(12.826,0,0,12.826,-1559.84,2186.4)">
                    <path d="M0.412,-0.693L0.412,-0.616L0.258,-0.616L0.258,0L0.168,0L0.168,-0.616L0.014,-0.616L0.014,-0.693L0.412,-0.693Z" style="fill:white;fill-rule:nonzero;"/>
                </g>
                <g transform="matrix(12.826,0,0,12.826,-1548.35,2186.4)">
                    <path d="M0.307,0.015C0.226,0.015 0.163,-0.015 0.12,-0.076C0.077,-0.137 0.055,-0.23 0.055,-0.357C0.055,-0.422 0.061,-0.476 0.074,-0.521C0.086,-0.566 0.103,-0.602 0.125,-0.63C0.147,-0.658 0.173,-0.678 0.203,-0.691C0.233,-0.703 0.266,-0.709 0.301,-0.709C0.33,-0.709 0.358,-0.705 0.383,-0.698C0.408,-0.69 0.429,-0.68 0.445,-0.669L0.418,-0.594C0.402,-0.605 0.385,-0.613 0.367,-0.62C0.348,-0.627 0.327,-0.63 0.303,-0.63C0.25,-0.63 0.211,-0.608 0.187,-0.564C0.163,-0.519 0.151,-0.45 0.151,-0.357C0.151,-0.263 0.164,-0.191 0.189,-0.14C0.214,-0.089 0.256,-0.064 0.313,-0.064C0.34,-0.064 0.363,-0.067 0.38,-0.074C0.397,-0.081 0.413,-0.089 0.429,-0.1L0.454,-0.029C0.439,-0.017 0.419,-0.007 0.394,0.002C0.369,0.011 0.34,0.015 0.307,0.015Z" style="fill:white;fill-rule:nonzero;"/>
                </g>
                <g transform="matrix(12.826,0,0,12.826,-1536.05,2186.4)">
                    <path d="M0.549,-0.346C0.549,-0.292 0.544,-0.243 0.535,-0.199C0.525,-0.154 0.51,-0.116 0.49,-0.085C0.469,-0.053 0.444,-0.028 0.413,-0.011C0.382,0.006 0.345,0.015 0.303,0.015C0.261,0.015 0.225,0.006 0.194,-0.011C0.163,-0.028 0.137,-0.053 0.117,-0.085C0.096,-0.116 0.081,-0.154 0.071,-0.199C0.061,-0.243 0.056,-0.292 0.056,-0.346C0.056,-0.4 0.061,-0.449 0.071,-0.494C0.081,-0.539 0.096,-0.577 0.117,-0.609C0.137,-0.64 0.163,-0.665 0.194,-0.683C0.225,-0.7 0.261,-0.709 0.303,-0.709C0.345,-0.709 0.382,-0.7 0.413,-0.683C0.444,-0.665 0.469,-0.64 0.49,-0.609C0.51,-0.577 0.525,-0.539 0.535,-0.494C0.544,-0.449 0.549,-0.4 0.549,-0.346ZM0.453,-0.346C0.453,-0.388 0.45,-0.426 0.445,-0.461C0.44,-0.496 0.431,-0.526 0.419,-0.551C0.407,-0.576 0.392,-0.595 0.373,-0.609C0.354,-0.623 0.33,-0.63 0.303,-0.63C0.276,-0.63 0.253,-0.623 0.234,-0.609C0.215,-0.595 0.199,-0.576 0.187,-0.551C0.175,-0.526 0.166,-0.496 0.161,-0.461C0.155,-0.426 0.152,-0.388 0.152,-0.346C0.152,-0.304 0.155,-0.266 0.161,-0.231C0.166,-0.196 0.175,-0.167 0.187,-0.142C0.199,-0.117 0.215,-0.098 0.234,-0.085C0.253,-0.071 0.276,-0.064 0.303,-0.064C0.33,-0.064 0.354,-0.071 0.373,-0.085C0.392,-0.098 0.407,-0.117 0.419,-0.142C0.431,-0.167 0.44,-0.196 0.445,-0.231C0.45,-0.266 0.453,-0.304 0.453,-0.346Z" style="fill:white;fill-rule:nonzero;"/>
                </g>
                <g transform="matrix(12.826,0,0,12.826,-1521.88,2186.4)">
                    <rect x="0.084" y="-0.693" width="0.09" height="0.693" style="fill:white;fill-rule:nonzero;"/>
                </g>
                <g transform="matrix(12.826,0,0,12.826,-1512.16,2186.4)">
                    <path d="M0.424,0C0.408,-0.039 0.39,-0.082 0.37,-0.128C0.349,-0.173 0.328,-0.219 0.306,-0.266C0.283,-0.312 0.26,-0.358 0.237,-0.404C0.214,-0.449 0.191,-0.492 0.168,-0.531L0.168,0L0.084,0L0.084,-0.693L0.159,-0.693C0.184,-0.652 0.209,-0.609 0.233,-0.566C0.256,-0.523 0.279,-0.48 0.3,-0.438C0.321,-0.395 0.341,-0.354 0.361,-0.313C0.38,-0.272 0.397,-0.233 0.413,-0.196L0.413,-0.693L0.497,-0.693L0.497,0L0.424,0Z" style="fill:white;fill-rule:nonzero;"/>
                </g>
                <g transform="matrix(12.826,0,0,12.826,-1498.29,2186.4)">
                    <path d="M0.402,-0.693L0.492,-0.693L0.492,0L0.402,0L0.402,-0.322L0.174,-0.322L0.174,0L0.084,0L0.084,-0.693L0.174,-0.693L0.174,-0.4L0.402,-0.4L0.402,-0.693Z" style="fill:white;fill-rule:nonzero;"/>
                </g>
                <g transform="matrix(12.826,0,0,12.826,-1484.49,2186.4)">
                    <path d="M0.299,-0.693C0.315,-0.643 0.331,-0.592 0.347,-0.542C0.362,-0.491 0.378,-0.437 0.393,-0.381C0.408,-0.325 0.423,-0.266 0.438,-0.203C0.452,-0.14 0.468,-0.073 0.483,0L0.393,0C0.388,-0.03 0.382,-0.06 0.377,-0.089C0.371,-0.118 0.365,-0.148 0.359,-0.177L0.141,-0.177C0.134,-0.148 0.128,-0.118 0.123,-0.089C0.118,-0.06 0.112,-0.03 0.107,0L0.02,0C0.035,-0.073 0.05,-0.14 0.065,-0.203C0.08,-0.266 0.095,-0.325 0.111,-0.381C0.126,-0.437 0.141,-0.491 0.157,-0.542C0.172,-0.592 0.188,-0.643 0.204,-0.693L0.299,-0.693ZM0.25,-0.591C0.233,-0.536 0.217,-0.48 0.202,-0.424C0.187,-0.368 0.172,-0.311 0.158,-0.252L0.341,-0.252C0.328,-0.311 0.313,-0.368 0.298,-0.424C0.283,-0.48 0.267,-0.536 0.25,-0.591Z" style="fill:white;fill-rule:nonzero;"/>
                </g>
                <g transform="matrix(12.826,0,0,12.826,-1471.63,2186.4)">
                    <path d="M0.393,-0.077L0.393,0L0.084,0L0.084,-0.693L0.174,-0.693L0.174,-0.077L0.393,-0.077Z" style="fill:white;fill-rule:nonzero;"/>
                </g>
                <g transform="matrix(12.826,0,0,12.826,-1460.51,2186.4)">
                    <path d="M0.2,0C0.185,-0.05 0.169,-0.1 0.154,-0.152C0.139,-0.203 0.124,-0.256 0.109,-0.312C0.094,-0.368 0.079,-0.427 0.064,-0.49C0.049,-0.552 0.035,-0.62 0.02,-0.693L0.114,-0.693C0.123,-0.642 0.132,-0.59 0.143,-0.539C0.154,-0.487 0.165,-0.436 0.177,-0.386C0.189,-0.336 0.201,-0.288 0.214,-0.241C0.226,-0.194 0.238,-0.149 0.25,-0.107C0.262,-0.149 0.274,-0.194 0.287,-0.241C0.299,-0.288 0.311,-0.336 0.323,-0.386C0.335,-0.436 0.346,-0.487 0.357,-0.539C0.368,-0.59 0.377,-0.642 0.386,-0.693L0.477,-0.693C0.462,-0.62 0.448,-0.552 0.433,-0.49C0.418,-0.427 0.404,-0.368 0.389,-0.312C0.374,-0.256 0.358,-0.203 0.343,-0.152C0.328,-0.1 0.312,-0.05 0.297,0L0.2,0Z" style="fill:white;fill-rule:nonzero;"/>
                </g>
                <g transform="matrix(12.826,0,0,12.826,-1447.72,2186.4)">
                    <rect x="0.084" y="-0.693" width="0.09" height="0.693" style="fill:white;fill-rule:nonzero;"/>
                </g>
                <g transform="matrix(12.826,0,0,12.826,-1438,2186.4)">
                    <path d="M0.424,0C0.408,-0.039 0.39,-0.082 0.37,-0.128C0.349,-0.173 0.328,-0.219 0.306,-0.266C0.283,-0.312 0.26,-0.358 0.237,-0.404C0.214,-0.449 0.191,-0.492 0.168,-0.531L0.168,0L0.084,0L0.084,-0.693L0.159,-0.693C0.184,-0.652 0.209,-0.609 0.233,-0.566C0.256,-0.523 0.279,-0.48 0.3,-0.438C0.321,-0.395 0.341,-0.354 0.361,-0.313C0.38,-0.272 0.397,-0.233 0.413,-0.196L0.413,-0.693L0.497,-0.693L0.497,0L0.424,0Z" style="fill:white;fill-rule:nonzero;"/>
                </g>
                <g transform="matrix(12.826,0,0,12.826,-1424.13,2186.4)">
                    <path d="M0.055,-0.347C0.055,-0.412 0.061,-0.468 0.073,-0.514C0.085,-0.56 0.102,-0.598 0.125,-0.627C0.147,-0.656 0.174,-0.677 0.206,-0.69C0.237,-0.703 0.273,-0.709 0.312,-0.709C0.342,-0.709 0.369,-0.705 0.394,-0.697C0.419,-0.688 0.439,-0.679 0.454,-0.668L0.426,-0.593C0.411,-0.604 0.394,-0.612 0.376,-0.62C0.358,-0.627 0.337,-0.63 0.314,-0.63C0.256,-0.63 0.214,-0.607 0.189,-0.56C0.164,-0.513 0.151,-0.442 0.151,-0.347C0.151,-0.296 0.155,-0.253 0.163,-0.217C0.17,-0.181 0.181,-0.152 0.195,-0.129C0.209,-0.106 0.226,-0.09 0.246,-0.079C0.266,-0.068 0.288,-0.063 0.313,-0.063C0.334,-0.063 0.351,-0.065 0.366,-0.07L0.366,-0.341L0.456,-0.341L0.456,-0.015C0.438,-0.006 0.416,0.001 0.389,0.007C0.362,0.013 0.334,0.016 0.305,0.016C0.269,0.016 0.236,0.009 0.205,-0.006C0.174,-0.02 0.148,-0.042 0.126,-0.072C0.103,-0.101 0.086,-0.139 0.074,-0.185C0.061,-0.23 0.055,-0.284 0.055,-0.347Z" style="fill:white;fill-rule:nonzero;"/>
                </g>
                <g transform="matrix(12.826,0,0,12.826,-1410.98,2186.4)">
                    <path d="M0.176,-0.046C0.176,-0.031 0.17,-0.017 0.16,-0.005C0.149,0.007 0.134,0.013 0.116,0.013C0.098,0.013 0.084,0.007 0.073,-0.005C0.062,-0.017 0.057,-0.031 0.057,-0.046C0.057,-0.062 0.062,-0.076 0.073,-0.088C0.084,-0.1 0.098,-0.106 0.116,-0.106C0.134,-0.106 0.149,-0.1 0.16,-0.088C0.17,-0.076 0.176,-0.062 0.176,-0.046Z" style="fill:white;fill-rule:nonzero;"/>
                </g>
                <g transform="matrix(12.826,0,0,12.826,-1403.33,2186.4)">
                    <path d="M0.307,0.015C0.226,0.015 0.163,-0.015 0.12,-0.076C0.077,-0.137 0.055,-0.23 0.055,-0.357C0.055,-0.422 0.061,-0.476 0.074,-0.521C0.086,-0.566 0.103,-0.602 0.125,-0.63C0.147,-0.658 0.173,-0.678 0.203,-0.691C0.233,-0.703 0.266,-0.709 0.301,-0.709C0.33,-0.709 0.358,-0.705 0.383,-0.698C0.408,-0.69 0.429,-0.68 0.445,-0.669L0.418,-0.594C0.402,-0.605 0.385,-0.613 0.367,-0.62C0.348,-0.627 0.327,-0.63 0.303,-0.63C0.25,-0.63 0.211,-0.608 0.187,-0.564C0.163,-0.519 0.151,-0.45 0.151,-0.357C0.151,-0.263 0.164,-0.191 0.189,-0.14C0.214,-0.089 0.256,-0.064 0.313,-0.064C0.34,-0.064 0.363,-0.067 0.38,-0.074C0.397,-0.081 0.413,-0.089 0.429,-0.1L0.454,-0.029C0.439,-0.017 0.419,-0.007 0.394,0.002C0.369,0.011 0.34,0.015 0.307,0.015Z" style="fill:white;fill-rule:nonzero;"/>
                </g>
                <g transform="matrix(12.826,0,0,12.826,-1391.03,2186.4)">
                    <path d="M0.549,-0.346C0.549,-0.292 0.544,-0.243 0.535,-0.199C0.525,-0.154 0.51,-0.116 0.49,-0.085C0.469,-0.053 0.444,-0.028 0.413,-0.011C0.382,0.006 0.345,0.015 0.303,0.015C0.261,0.015 0.225,0.006 0.194,-0.011C0.163,-0.028 0.137,-0.053 0.117,-0.085C0.096,-0.116 0.081,-0.154 0.071,-0.199C0.061,-0.243 0.056,-0.292 0.056,-0.346C0.056,-0.4 0.061,-0.449 0.071,-0.494C0.081,-0.539 0.096,-0.577 0.117,-0.609C0.137,-0.64 0.163,-0.665 0.194,-0.683C0.225,-0.7 0.261,-0.709 0.303,-0.709C0.345,-0.709 0.382,-0.7 0.413,-0.683C0.444,-0.665 0.469,-0.64 0.49,-0.609C0.51,-0.577 0.525,-0.539 0.535,-0.494C0.544,-0.449 0.549,-0.4 0.549,-0.346ZM0.453,-0.346C0.453,-0.388 0.45,-0.426 0.445,-0.461C0.44,-0.496 0.431,-0.526 0.419,-0.551C0.407,-0.576 0.392,-0.595 0.373,-0.609C0.354,-0.623 0.33,-0.63 0.303,-0.63C0.276,-0.63 0.253,-0.623 0.234,-0.609C0.215,-0.595 0.199,-0.576 0.187,-0.551C0.175,-0.526 0.166,-0.496 0.161,-0.461C0.155,-0.426 0.152,-0.388 0.152,-0.346C0.152,-0.304 0.155,-0.266 0.161,-0.231C0.166,-0.196 0.175,-0.167 0.187,-0.142C0.199,-0.117 0.215,-0.098 0.234,-0.085C0.253,-0.071 0.276,-0.064 0.303,-0.064C0.33,-0.064 0.354,-0.071 0.373,-0.085C0.392,-0.098 0.407,-0.117 0.419,-0.142C0.431,-0.167 0.44,-0.196 0.445,-0.231C0.45,-0.266 0.453,-0.304 0.453,-0.346Z" style="fill:white;fill-rule:nonzero;"/>
                </g>
                <g transform="matrix(12.826,0,0,12.826,-1376.85,2186.4)">
                    <path d="M0.325,-0.096C0.312,-0.144 0.298,-0.19 0.284,-0.234C0.27,-0.278 0.257,-0.319 0.244,-0.359C0.231,-0.397 0.218,-0.433 0.206,-0.465C0.194,-0.497 0.183,-0.525 0.173,-0.549C0.17,-0.511 0.168,-0.469 0.167,-0.424C0.165,-0.378 0.163,-0.331 0.162,-0.283C0.16,-0.235 0.159,-0.187 0.158,-0.139C0.157,-0.09 0.156,-0.044 0.155,0L0.069,0C0.071,-0.06 0.073,-0.121 0.075,-0.182C0.077,-0.243 0.08,-0.303 0.083,-0.362C0.086,-0.421 0.089,-0.478 0.093,-0.534C0.096,-0.59 0.1,-0.643 0.105,-0.693L0.194,-0.693C0.206,-0.664 0.22,-0.63 0.235,-0.591C0.25,-0.551 0.266,-0.509 0.282,-0.466C0.297,-0.423 0.312,-0.379 0.327,-0.336C0.342,-0.293 0.354,-0.253 0.365,-0.217C0.376,-0.253 0.388,-0.293 0.402,-0.336C0.416,-0.379 0.431,-0.423 0.446,-0.466C0.461,-0.509 0.476,-0.551 0.492,-0.591C0.507,-0.63 0.52,-0.664 0.532,-0.693L0.621,-0.693C0.626,-0.643 0.63,-0.59 0.634,-0.534C0.637,-0.478 0.641,-0.421 0.644,-0.362C0.647,-0.303 0.649,-0.243 0.651,-0.182C0.653,-0.121 0.655,-0.06 0.657,0L0.571,0C0.57,-0.044 0.569,-0.09 0.568,-0.139C0.567,-0.188 0.565,-0.237 0.564,-0.286C0.562,-0.335 0.56,-0.382 0.558,-0.429C0.556,-0.475 0.554,-0.517 0.551,-0.556C0.545,-0.539 0.538,-0.519 0.529,-0.494C0.52,-0.468 0.51,-0.441 0.501,-0.412C0.491,-0.383 0.481,-0.353 0.471,-0.322C0.46,-0.291 0.451,-0.261 0.442,-0.232C0.432,-0.203 0.424,-0.177 0.418,-0.154C0.411,-0.13 0.405,-0.111 0.401,-0.096L0.325,-0.096Z" style="fill:white;fill-rule:nonzero;"/>
                </g>
            </g>
            <path d="M-1644.63,2129.12C-1645.16,2126.14 -1645.09,2122.99 -1644.31,2119.87C-1641.34,2107.96 -1629.28,2100.71 -1617.38,2103.68C-1605.97,2106.52 -1598.84,2117.71 -1600.87,2129.12L-1613.43,2129.12C-1613.55,2127.52 -1614.55,2126.44 -1616.06,2125.65C-1614.47,2125.29 -1613.27,2124.24 -1612.95,2122.07C-1612.51,2119.12 -1614.76,2117.53 -1617.84,2116.46L-1616.84,2112.46L-1619.28,2111.85L-1620.25,2115.75C-1620.89,2115.59 -1621.55,2115.44 -1622.2,2115.29L-1621.22,2111.37L-1623.66,2110.76L-1624.66,2114.76C-1625.19,2114.64 -1625.71,2114.52 -1626.22,2114.4L-1626.22,2114.38L-1629.58,2113.54L-1630.23,2116.15C-1630.23,2116.15 -1628.42,2116.56 -1628.46,2116.59C-1627.47,2116.84 -1627.29,2117.49 -1627.32,2118.01L-1628.46,2122.57C-1628.39,2122.59 -1628.3,2122.61 -1628.2,2122.65C-1628.29,2122.63 -1628.37,2122.61 -1628.46,2122.59L-1630.06,2128.98C-1630.07,2129.03 -1630.1,2129.07 -1630.12,2129.12L-1644.63,2129.12ZM-1625.59,2129.12L-1624.69,2125.5C-1623.18,2125.88 -1618.62,2126.59 -1618.45,2129.12L-1625.59,2129.12ZM-1595.62,2129.12L-1589.74,2104.37L-1581.02,2103.02L-1584.5,2117.53C-1583.76,2117.2 -1583.01,2116.93 -1582.26,2116.74C-1581.5,2116.56 -1580.7,2116.46 -1579.84,2116.46C-1578.04,2116.46 -1576.48,2116.78 -1575.17,2117.42C-1573.85,2118.06 -1572.77,2118.92 -1571.9,2120.01C-1571.04,2121.1 -1570.4,2122.37 -1569.99,2123.83C-1569.58,2125.3 -1569.37,2126.87 -1569.37,2128.56C-1569.37,2128.74 -1569.38,2128.93 -1569.38,2129.12L-1577.7,2129.12C-1577.7,2127.35 -1578,2125.96 -1578.6,2124.95C-1579.19,2123.95 -1580.31,2123.44 -1581.91,2123.44C-1582.44,2123.44 -1583.12,2123.54 -1583.97,2123.72C-1584.81,2123.91 -1585.57,2124.3 -1586.25,2124.9L-1587.26,2129.12L-1595.62,2129.12ZM-1556.13,2129.12L-1564.49,2129.12L-1561.63,2117.09L-1553.24,2117.09L-1556.13,2129.12ZM-1550.54,2129.12L-1545.95,2109.72L-1537.23,2108.37L-1539.37,2117.09L-1530.03,2117.09L-1531.72,2123.95L-1541,2123.95L-1542.23,2129.12L-1550.54,2129.12ZM-1529.63,2129.12C-1529.49,2128.63 -1529.33,2128.14 -1529.16,2127.66C-1528.34,2125.41 -1527.15,2123.44 -1525.61,2121.75C-1524.08,2120.07 -1522.21,2118.73 -1520.01,2117.76C-1517.82,2116.78 -1515.37,2116.29 -1512.67,2116.29C-1510.98,2116.29 -1509.48,2116.45 -1508.15,2116.77C-1506.81,2117.1 -1505.61,2117.51 -1504.52,2118.04L-1507.39,2124.57C-1508.14,2124.26 -1508.91,2123.99 -1509.72,2123.75C-1510.53,2123.5 -1511.51,2123.38 -1512.67,2123.38C-1515.45,2123.38 -1517.65,2124.34 -1519.28,2126.25C-1519.99,2127.08 -1520.55,2128.04 -1520.95,2129.12L-1529.63,2129.12ZM-1504.2,2129.12C-1504.14,2128.91 -1504.08,2128.71 -1504.01,2128.5C-1503.28,2126.25 -1502.2,2124.23 -1500.77,2122.43C-1499.36,2120.63 -1497.61,2119.16 -1495.55,2118.01C-1493.49,2116.87 -1491.12,2116.29 -1488.46,2116.29C-1486.51,2116.29 -1484.79,2116.6 -1483.31,2117.2C-1481.83,2117.79 -1480.61,2118.64 -1479.65,2119.73C-1478.7,2120.82 -1477.98,2122.1 -1477.49,2123.58C-1477,2125.06 -1476.76,2126.7 -1476.76,2128.5C-1476.76,2128.71 -1476.76,2128.91 -1476.77,2129.12L-1485.08,2129.12C-1485.11,2127.36 -1485.41,2125.97 -1485.98,2124.96C-1486.58,2123.91 -1487.67,2123.38 -1489.25,2123.38C-1490.48,2123.38 -1491.57,2123.74 -1492.51,2124.45C-1493.44,2125.17 -1494.23,2126.07 -1494.87,2127.15C-1495.23,2127.78 -1495.55,2128.43 -1495.81,2129.12L-1504.2,2129.12ZM-1463.48,2129.12L-1471.85,2129.12L-1468.99,2117.09L-1460.6,2117.09L-1463.48,2129.12ZM-1457.18,2129.12L-1454.6,2118.43C-1453.97,2118.25 -1453.26,2118.03 -1452.5,2117.78C-1451.73,2117.54 -1450.86,2117.32 -1449.9,2117.12C-1448.95,2116.91 -1447.88,2116.74 -1446.7,2116.61C-1445.52,2116.47 -1444.17,2116.41 -1442.68,2116.41C-1438.29,2116.41 -1435.26,2117.68 -1433.59,2120.23C-1432.12,2122.47 -1431.72,2125.44 -1432.38,2129.12L-1440.83,2129.12C-1440.77,2128.81 -1440.72,2128.5 -1440.68,2128.19C-1440.55,2127.28 -1440.55,2126.47 -1440.71,2125.77C-1440.86,2125.08 -1441.2,2124.52 -1441.75,2124.08C-1442.3,2123.65 -1443.13,2123.44 -1444.25,2123.44C-1445.34,2123.44 -1446.44,2123.55 -1447.57,2123.78L-1448.84,2129.12L-1457.18,2129.12ZM-1617.77,2122.03C-1618.45,2124.78 -1622.7,2123.38 -1624.08,2123.04L-1622.86,2118.17C-1621.48,2118.51 -1617.05,2119.16 -1617.77,2122.03ZM-1556.28,2113.48C-1557.44,2113.48 -1558.5,2113.14 -1559.43,2112.44C-1560.37,2111.75 -1560.84,2110.69 -1560.84,2109.26C-1560.84,2108.48 -1560.68,2107.74 -1560.37,2107.04C-1560.04,2106.35 -1559.62,2105.75 -1559.1,2105.24C-1558.57,2104.74 -1557.96,2104.34 -1557.27,2104.03C-1556.57,2103.73 -1555.83,2103.58 -1555.04,2103.58C-1553.88,2103.58 -1552.83,2103.93 -1551.9,2104.62C-1550.96,2105.32 -1550.49,2106.38 -1550.49,2107.8C-1550.49,2108.59 -1550.65,2109.33 -1550.97,2110.03C-1551.29,2110.72 -1551.71,2111.32 -1552.23,2111.83C-1552.76,2112.33 -1553.37,2112.73 -1554.06,2113.03C-1554.76,2113.34 -1555.5,2113.48 -1556.28,2113.48ZM-1463.64,2113.48C-1464.8,2113.48 -1465.86,2113.14 -1466.79,2112.44C-1467.73,2111.75 -1468.2,2110.69 -1468.2,2109.26C-1468.2,2108.48 -1468.04,2107.74 -1467.72,2107.04C-1467.4,2106.35 -1466.98,2105.75 -1466.45,2105.24C-1465.93,2104.74 -1465.31,2104.34 -1464.62,2104.03C-1463.93,2103.73 -1463.19,2103.58 -1462.4,2103.58C-1461.24,2103.58 -1460.19,2103.93 -1459.25,2104.62C-1458.32,2105.32 -1457.84,2106.38 -1457.84,2107.8C-1457.84,2108.59 -1458.01,2109.33 -1458.33,2110.03C-1458.64,2110.72 -1459.06,2111.32 -1459.59,2111.83C-1460.12,2112.33 -1460.72,2112.73 -1461.41,2113.03C-1462.11,2113.34 -1462.85,2113.48 -1463.64,2113.48Z" style="fill:white;fill-rule:nonzero;"/>
        </g>
    </g>
</svg>
