<?xml version="1.0" encoding="UTF-8" standalone="no"?>
<svg
   xmlns:dc="http://purl.org/dc/elements/1.1/"
   xmlns:cc="http://creativecommons.org/ns#"
   xmlns:rdf="http://www.w3.org/1999/02/22-rdf-syntax-ns#"
   xmlns:svg="http://www.w3.org/2000/svg"
   xmlns="http://www.w3.org/2000/svg"
   viewBox="0 0 3892.9199 3892.9199"
   height="3892.9199"
   width="3892.9199"
   xml:space="preserve"
   id="svg2"
   version="1.1"><metadata
     id="metadata8"><rdf:RDF><cc:Work
         rdf:about=""><dc:format>image/svg+xml</dc:format><dc:type
           rdf:resource="http://purl.org/dc/dcmitype/StillImage" /></cc:Work></rdf:RDF></metadata><defs
     id="defs6"><clipPath
       id="clipPath18"
       clipPathUnits="userSpaceOnUse"><path
         id="path16"
         d="M 0,2919.688 H 2919.688 V 0 H 0 Z" /></clipPath><clipPath
       id="clipPath68"
       clipPathUnits="userSpaceOnUse"><path
         id="path66"
         d="M 0,2919.688 H 2919.688 V 0 H 0 Z" /></clipPath></defs><g
     transform="matrix(1.3333333,0,0,-1.3333333,0,3892.92)"
     id="g10"><g
       id="g12"><g
         clip-path="url(#clipPath18)"
         id="g14"><g
           transform="translate(1027.6085,1508.4769)"
           id="g20"><path
             id="path22"
             style="fill:#231916;fill-opacity:1;fill-rule:nonzero;stroke:none"
             d="m 0,0 v -142.893 c 17.79,-5.365 36.057,-8.037 54.808,-8.037 23.144,0 42.038,8.222 56.668,24.676 14.634,16.453 21.952,37.593 21.952,63.409 0,26.207 -6.84,47.542 -20.513,63.996 C 99.236,17.594 81.395,25.826 59.397,25.826 39.885,25.826 20.087,17.214 0,0 M -52.223,205.738 H 0 V 49.926 c 22.568,16.454 46.673,24.686 72.31,24.686 33.472,0 60.835,-12.631 82.068,-37.882 21.232,-25.251 31.848,-57.675 31.848,-97.272 0,-42.466 -12.671,-76.287 -38.02,-101.436 -25.348,-25.158 -59.252,-37.737 -101.723,-37.737 -17.029,0 -34.962,1.819 -53.8,5.457 -18.843,3.628 -33.817,8.222 -44.906,13.771 z" /></g><path
           id="path24"
           style="fill:#231916;fill-opacity:1;fill-rule:nonzero;stroke:none"
           d="m 1272.661,1577.344 h 52.223 v -263.988 h -52.223 z m 25.827,111.044 c 8.607,0 15.97,-2.96 22.09,-8.89 6.12,-5.93 9.183,-13.195 9.183,-21.808 0,-8.417 -3.063,-15.693 -9.183,-21.808 -6.12,-6.125 -13.483,-9.177 -22.09,-9.177 -8.037,0 -15.118,3.103 -21.238,9.321 -6.12,6.218 -9.183,13.432 -9.183,21.664 0,8.037 3.063,15.159 9.183,21.377 6.12,6.217 13.201,9.321 21.238,9.321" /><g
           transform="translate(1363.3362,1535.4543)"
           id="g26"><path
             id="path28"
             style="fill:#231916;fill-opacity:1;fill-rule:nonzero;stroke:none"
             d="M 0,0 98.136,96.41 V 41.89 h 83.502 V -5.169 H 98.136 v -129.204 c 0,-30.174 12.528,-45.261 37.589,-45.261 18.745,0 38.544,6.218 59.396,18.653 v -48.775 c -20.086,-11.294 -41.992,-16.937 -65.706,-16.937 -23.915,0 -43.812,6.989 -59.685,20.945 -4.979,4.214 -9.09,8.941 -12.343,14.213 -3.252,5.252 -5.981,12.138 -8.175,20.657 -2.205,8.51 -3.299,24.717 -3.299,48.632 V -5.169 L 0,-5.169 Z" /></g><g
           transform="translate(1603.7949,1714.2145)"
           id="g30"><path
             id="path32"
             style="fill:#231916;fill-opacity:1;fill-rule:nonzero;stroke:none"
             d="M 0,0 H 213.774 V -51.077 H 57.393 v -111.908 h 156.381 v -51.077 H 57.393 V -400.859 H 0 Z" /></g><path
           id="path34"
           style="fill:#231916;fill-opacity:1;fill-rule:nonzero;stroke:none"
           d="m 1872.953,1714.214 h 52.223 v -400.859 h -52.223 z" /><g
           transform="translate(2162.7107,1577.3439)"
           id="g36"><path
             id="path38"
             style="fill:#231916;fill-opacity:1;fill-rule:nonzero;stroke:none"
             d="m 0,0 h 58.595 l -187.049,-398.567 h -58.291 L -97.134,-207.3 -199.083,0 h 59.51 l 71.287,-149.121 z" /></g><g
           transform="translate(2298.4919,1472.0343)"
           id="g40"><path
             id="path42"
             style="fill:#231916;fill-opacity:1;fill-rule:nonzero;stroke:none"
             d="M 0,0 H 132.857 C 131.516,20.852 125.299,36.915 114.204,48.21 103.11,59.494 88.188,65.136 69.442,65.136 50.692,65.136 35.338,59.494 23.385,48.21 11.428,36.915 3.633,20.852 0,0 M 184.505,-31.273 H -1.146 c 1.336,-25.251 9.799,-45.343 25.395,-60.265 15.59,-14.912 35.723,-22.374 60.404,-22.374 34.433,0 66.184,10.709 95.263,32.137 v -51.077 c -16.068,-10.719 -31.992,-18.366 -47.778,-22.959 -15.781,-4.594 -34.29,-6.886 -55.522,-6.886 -29.079,0 -52.609,6.022 -70.588,18.077 -17.986,12.055 -32.379,28.262 -43.185,48.642 -10.812,20.369 -16.212,43.945 -16.212,70.727 0,40.173 11.377,72.834 34.146,97.992 22.764,25.159 52.315,37.738 88.665,37.738 35.009,0 62.937,-12.25 83.79,-36.73 20.847,-24.491 31.273,-57.295 31.273,-98.424 z" /></g><g
           transform="translate(2595.4851,1577.3439)"
           id="g44"><path
             id="path46"
             style="fill:#231916;fill-opacity:1;fill-rule:nonzero;stroke:none"
             d="m 0,0 v -60.542 l 2.867,4.593 C 28.118,-15.21 53.369,5.169 78.62,5.169 c 19.701,0 40.266,-9.948 61.693,-29.844 l -27.547,-45.908 c -18.175,17.214 -35.004,25.816 -50.502,25.816 -16.834,0 -31.417,-8.027 -43.76,-24.1 C 6.166,-84.93 0,-103.974 0,-125.967 V -263.988 H -52.511 V 0 Z" /></g><path
           id="path48"
           style="fill:#468ccb;fill-opacity:1;fill-rule:nonzero;stroke:none"
           d="M 375.664,1584.549 H 184.617 v 191.047 h 191.047 z" /><path
           id="path50"
           style="fill:#468ccb;fill-opacity:1;fill-rule:nonzero;stroke:none"
           d="M 595.854,1584.549 H 404.807 v 191.047 h 191.047 z" /><path
           id="path52"
           style="fill:#468ccb;fill-opacity:1;fill-rule:nonzero;stroke:none"
           d="M 375.664,1364.359 H 184.617 v 191.047 h 191.047 z" /><path
           id="path54"
           style="fill:#468ccb;fill-opacity:1;fill-rule:nonzero;stroke:none"
           d="M 375.664,1144.17 H 184.617 v 191.047 h 191.047 z" /><g
           transform="translate(405.6165,1459.8827)"
           id="g56"><path
             id="path58"
             style="fill:#ee7f4a;fill-opacity:1;fill-rule:nonzero;stroke:none"
             d="m 0,0 c 0,-52.309 42.405,-94.714 94.714,-94.714 52.309,0 94.714,42.405 94.714,94.714 0,52.309 -42.405,94.714 -94.714,94.714 C 42.405,94.714 0,52.309 0,0" /></g><path
           id="path60"
           style="fill:#468ccb;fill-opacity:1;fill-rule:nonzero;stroke:none"
           d="M 816.043,1584.549 H 624.996 v 191.047 h 191.047 z" /></g></g><g
       id="g62"><g
         clip-path="url(#clipPath68)"
         id="g64"><g
           transform="translate(1027.6085,1508.4769)"
           id="g70"><path
             id="path72"
             style="fill:#ffffff;fill-opacity:1;fill-rule:nonzero;stroke:none"
             d="m 0,0 v -142.893 c 17.79,-5.365 36.057,-8.037 54.808,-8.037 23.144,0 42.038,8.222 56.668,24.676 14.634,16.453 21.952,37.593 21.952,63.409 0,26.207 -6.84,47.542 -20.513,63.996 C 99.236,17.594 81.395,25.826 59.397,25.826 39.885,25.826 20.087,17.214 0,0 M -52.223,205.738 H 0 V 49.926 c 22.568,16.454 46.673,24.686 72.31,24.686 33.472,0 60.835,-12.631 82.068,-37.882 21.232,-25.251 31.848,-57.675 31.848,-97.272 0,-42.466 -12.671,-76.287 -38.02,-101.436 -25.348,-25.158 -59.252,-37.737 -101.723,-37.737 -17.029,0 -34.962,1.819 -53.8,5.457 -18.843,3.628 -33.817,8.222 -44.906,13.771 z" /></g><path
           id="path74"
           style="fill:#ffffff;fill-opacity:1;fill-rule:nonzero;stroke:none"
           d="m 1272.661,1577.344 h 52.223 v -263.988 h -52.223 z m 25.827,111.044 c 8.607,0 15.97,-2.96 22.09,-8.89 6.12,-5.93 9.183,-13.195 9.183,-21.808 0,-8.417 -3.063,-15.693 -9.183,-21.808 -6.12,-6.125 -13.483,-9.177 -22.09,-9.177 -8.037,0 -15.118,3.103 -21.238,9.321 -6.12,6.218 -9.183,13.432 -9.183,21.664 0,8.037 3.063,15.159 9.183,21.377 6.12,6.217 13.201,9.321 21.238,9.321" /><g
           transform="translate(1363.3362,1535.4543)"
           id="g76"><path
             id="path78"
             style="fill:#ffffff;fill-opacity:1;fill-rule:nonzero;stroke:none"
             d="M 0,0 98.136,96.41 V 41.89 h 83.502 V -5.169 H 98.136 v -129.204 c 0,-30.174 12.528,-45.261 37.589,-45.261 18.745,0 38.544,6.218 59.396,18.653 v -48.775 c -20.086,-11.294 -41.992,-16.937 -65.706,-16.937 -23.915,0 -43.812,6.989 -59.685,20.945 -4.979,4.214 -9.09,8.941 -12.343,14.213 -3.252,5.252 -5.981,12.138 -8.175,20.657 -2.205,8.51 -3.299,24.717 -3.299,48.632 V -5.169 L 0,-5.169 Z" /></g><g
           transform="translate(1603.7949,1714.2145)"
           id="g80"><path
             id="path82"
             style="fill:#ffffff;fill-opacity:1;fill-rule:nonzero;stroke:none"
             d="M 0,0 H 213.774 V -51.077 H 57.393 v -111.908 h 156.381 v -51.077 H 57.393 V -400.859 H 0 Z" /></g><path
           id="path84"
           style="fill:#ffffff;fill-opacity:1;fill-rule:nonzero;stroke:none"
           d="m 1872.953,1714.214 h 52.223 v -400.859 h -52.223 z" /><g
           transform="translate(2162.7107,1577.3439)"
           id="g86"><path
             id="path88"
             style="fill:#ffffff;fill-opacity:1;fill-rule:nonzero;stroke:none"
             d="m 0,0 h 58.595 l -187.049,-398.567 h -58.291 L -97.134,-207.3 -199.083,0 h 59.51 l 71.287,-149.121 z" /></g><g
           transform="translate(2298.4919,1472.0343)"
           id="g90"><path
             id="path92"
             style="fill:#ffffff;fill-opacity:1;fill-rule:nonzero;stroke:none"
             d="M 0,0 H 132.857 C 131.516,20.852 125.299,36.915 114.204,48.21 103.11,59.494 88.188,65.136 69.442,65.136 50.692,65.136 35.338,59.494 23.385,48.21 11.428,36.915 3.633,20.852 0,0 M 184.505,-31.273 H -1.146 c 1.336,-25.251 9.799,-45.343 25.395,-60.265 15.59,-14.912 35.723,-22.374 60.404,-22.374 34.433,0 66.184,10.709 95.263,32.137 v -51.077 c -16.068,-10.719 -31.992,-18.366 -47.778,-22.959 -15.781,-4.594 -34.29,-6.886 -55.522,-6.886 -29.079,0 -52.609,6.022 -70.588,18.077 -17.986,12.055 -32.379,28.262 -43.185,48.642 -10.812,20.369 -16.212,43.945 -16.212,70.727 0,40.173 11.377,72.834 34.146,97.992 22.764,25.159 52.315,37.738 88.665,37.738 35.009,0 62.937,-12.25 83.79,-36.73 20.847,-24.491 31.273,-57.295 31.273,-98.424 z" /></g><g
           transform="translate(2595.4851,1577.3439)"
           id="g94"><path
             id="path96"
             style="fill:#ffffff;fill-opacity:1;fill-rule:nonzero;stroke:none"
             d="m 0,0 v -60.542 l 2.867,4.593 C 28.118,-15.21 53.369,5.169 78.62,5.169 c 19.701,0 40.266,-9.948 61.693,-29.844 l -27.547,-45.908 c -18.175,17.214 -35.004,25.816 -50.502,25.816 -16.834,0 -31.417,-8.027 -43.76,-24.1 C 6.166,-84.93 0,-103.974 0,-125.967 V -263.988 H -52.511 V 0 Z" /></g><path
           id="path98"
           style="fill:#ffffff;fill-opacity:1;fill-rule:nonzero;stroke:none"
           d="M 375.664,1584.549 H 184.617 v 191.047 h 191.047 z" /><path
           id="path100"
           style="fill:#ffffff;fill-opacity:1;fill-rule:nonzero;stroke:none"
           d="M 595.854,1584.549 H 404.807 v 191.047 h 191.047 z" /><path
           id="path102"
           style="fill:#ffffff;fill-opacity:1;fill-rule:nonzero;stroke:none"
           d="M 375.664,1364.359 H 184.617 v 191.047 h 191.047 z" /><path
           id="path104"
           style="fill:#ffffff;fill-opacity:1;fill-rule:nonzero;stroke:none"
           d="M 375.664,1144.17 H 184.617 v 191.047 h 191.047 z" /><g
           transform="translate(405.6165,1459.8827)"
           id="g106"><path
             id="path108"
             style="fill:#ee7f4a;fill-opacity:1;fill-rule:nonzero;stroke:none"
             d="m 0,0 c 0,-52.309 42.405,-94.714 94.714,-94.714 52.309,0 94.714,42.405 94.714,94.714 0,52.309 -42.405,94.714 -94.714,94.714 C 42.405,94.714 0,52.309 0,0" /></g><path
           id="path110"
           style="fill:#ffffff;fill-opacity:1;fill-rule:nonzero;stroke:none"
           d="M 816.043,1584.549 H 624.996 v 191.047 h 191.047 z" /></g></g></g></svg>