<?xml version="1.0" encoding="UTF-8" standalone="no"?>
<!DOCTYPE svg PUBLIC "-//W3C//DTD SVG 1.1//EN" "http://www.w3.org/Graphics/SVG/1.1/DTD/svg11.dtd">
<svg width="100%" height="100%" viewBox="0 0 150 29" version="1.1" xmlns="http://www.w3.org/2000/svg" xmlns:xlink="http://www.w3.org/1999/xlink" xml:space="preserve" xmlns:serif="http://www.serif.com/" style="fill-rule:evenodd;clip-rule:evenodd;stroke-linejoin:round;stroke-miterlimit:2;">
    <g transform="matrix(1,0,0,1,-705.472,-2548.44)">
        <g transform="matrix(1,0,0,1,705.472,2547.69)">
            <path d="M65.787,29.048L38.89,29.048L52.338,0.754L65.786,29.048L65.787,29.048ZM44.123,25.767L60.553,25.767L52.338,8.486L44.123,25.769L44.123,25.767ZM131.413,29.516L131.413,4.216L140.782,4.216L140.782,0.936L119.231,0.936L119.231,4.216L128.132,4.216L128.132,29.516L131.413,29.516ZM103.769,29.048L103.769,26.235L90.65,26.235L90.65,0.936L86.903,0.936L86.903,29.048L103.771,29.048L103.769,29.048ZM0,24.884C2.328,27.426 5.925,29.23 10.835,29.23C18.454,29.23 21.248,25.171 21.248,21.195C21.248,10.985 4.529,14.51 4.529,8.36C4.529,5.778 6.942,4.015 10.328,4.015C13.417,4.015 16.38,5.04 18.496,7.295L20.613,4.794C18.242,2.375 14.898,0.981 10.581,0.981C5.037,0.981 0.89,4.055 0.89,8.565C0.89,18.323 17.609,14.428 17.609,21.48C17.609,23.57 16.001,26.195 10.964,26.195C6.985,26.195 3.938,24.309 2.075,22.301L0,24.884Z" style="fill:white;"/>
            <path d="M144.669,4.209L144.669,1.504L143.703,1.504L143.703,0.952L146.291,0.952L146.291,1.504L145.327,1.504L145.327,4.21L144.669,4.21M146.705,4.209L146.705,0.953L147.689,0.953L148.279,3.173L148.864,0.953L149.85,0.953L149.85,4.209L149.24,4.209L149.24,1.645L148.593,4.208L147.96,4.208L147.316,1.645L147.316,4.208L146.705,4.208" style="fill:white;"/>
        </g>
    </g>
</svg>
