<svg id="svg" version="1.1" width="400" height="400" viewBox="0 0 400 400" xmlns="http://www.w3.org/2000/svg" xmlns:xlink="http://www.w3.org/1999/xlink" ><g id="svgg"><path id="path0" d="M231.106 136.512 C 230.864 136.702,230.464 137.208,230.216 137.637 C 229.969 138.066,229.725 138.454,229.675 138.500 C 229.306 138.837,227.667 142.350,227.667 142.804 C 227.667 142.967,227.577 143.190,227.467 143.300 C 227.357 143.410,227.328 143.500,227.404 143.500 C 227.479 143.500,227.447 143.612,227.333 143.750 C 227.219 143.887,227.171 144.000,227.225 144.000 C 227.280 144.000,227.259 144.175,227.177 144.389 C 227.096 144.603,226.983 145.071,226.927 145.431 C 226.495 148.176,226.501 148.100,226.242 154.083 C 226.191 155.275,226.039 156.775,225.906 157.417 C 225.773 158.058,225.624 158.808,225.575 159.083 C 225.491 159.560,225.304 160.071,224.981 160.706 C 224.900 160.865,224.833 161.077,224.833 161.176 C 224.833 161.275,224.609 161.682,224.335 162.080 C 222.133 165.282,218.472 161.781,214.405 152.583 C 213.959 151.575,213.435 150.487,213.240 150.167 C 213.045 149.846,212.746 149.283,212.576 148.917 C 212.406 148.550,212.222 148.212,212.167 148.167 C 212.111 148.121,211.889 147.783,211.673 147.417 C 210.372 145.209,208.231 142.974,206.737 142.263 C 204.596 141.245,203.314 141.654,201.499 143.935 C 201.081 144.460,199.902 147.564,199.972 147.955 C 199.975 147.976,199.908 148.239,199.821 148.539 C 199.683 149.014,199.434 150.830,199.255 152.667 C 199.223 152.987,199.151 154.262,199.095 155.500 C 199.038 156.737,198.949 158.650,198.897 159.750 C 198.792 161.976,198.424 164.302,198.002 165.412 C 197.914 165.644,197.878 165.833,197.923 165.833 C 197.968 165.833,197.783 166.273,197.511 166.811 C 195.498 170.799,192.188 168.687,188.403 161.000 C 187.974 160.129,187.572 159.229,187.509 159.000 C 187.340 158.382,186.561 158.048,186.010 158.356 C 185.338 158.731,185.364 159.469,186.099 160.975 C 186.810 162.428,188.944 166.256,189.265 166.653 C 189.382 166.798,189.904 167.458,190.425 168.120 C 192.857 171.209,195.521 172.011,197.378 170.211 C 198.074 169.536,199.000 168.260,199.000 167.976 C 199.000 167.880,199.111 167.602,199.246 167.359 C 199.446 166.999,199.753 166.068,200.107 164.750 C 200.226 164.307,200.688 161.663,200.763 161.000 C 200.809 160.587,200.919 159.652,201.007 158.921 C 201.095 158.190,201.167 156.578,201.168 155.338 C 201.177 140.741,206.636 140.236,212.929 154.250 C 217.164 163.679,221.808 167.543,225.084 164.361 C 225.626 163.835,226.823 161.995,226.703 161.873 C 226.679 161.849,226.765 161.624,226.893 161.373 C 227.151 160.869,227.835 158.370,227.930 157.583 C 228.212 155.253,228.342 153.808,228.415 152.167 C 228.617 147.688,228.697 146.842,229.056 145.417 C 229.461 143.810,229.691 143.076,229.833 142.934 C 229.925 142.842,230.001 142.650,230.002 142.508 C 230.004 142.237,231.249 139.698,231.513 139.425 C 231.598 139.338,231.667 139.145,231.667 138.997 C 231.667 138.848,231.929 138.420,232.250 138.045 C 233.266 136.858,232.304 135.569,231.106 136.512 M271.250 191.957 L 275.833 192.005 275.875 233.586 L 275.918 275.167 275.917 233.542 L 275.917 191.917 271.292 191.913 L 266.667 191.909 271.250 191.957 M295.291 191.958 L 299.999 192.005 300.042 233.628 L 300.084 275.250 300.125 233.542 L 300.167 191.833 295.375 191.872 L 290.583 191.911 295.291 191.958 M102.052 218.291 C 103.318 218.320,105.343 218.320,106.552 218.291 C 107.761 218.263,106.725 218.240,104.250 218.240 C 101.775 218.240,100.786 218.263,102.052 218.291 M100.709 230.083 C 100.711 230.450,100.745 230.580,100.785 230.373 C 100.824 230.166,100.823 229.866,100.781 229.706 C 100.739 229.547,100.707 229.717,100.709 230.083 M140.414 257.167 C 140.414 267.112,140.434 271.181,140.458 266.208 C 140.483 261.235,140.483 253.098,140.458 248.125 C 140.434 243.152,140.414 247.221,140.414 257.167 M214.539 244.667 C 214.539 244.987,214.573 245.119,214.615 244.958 C 214.657 244.798,214.657 244.535,214.615 244.375 C 214.573 244.215,214.539 244.346,214.539 244.667 M214.539 248.167 C 214.539 248.487,214.573 248.619,214.615 248.458 C 214.657 248.298,214.657 248.035,214.615 247.875 C 214.573 247.715,214.539 247.846,214.539 248.167 M186.375 288.250 C 186.377 288.617,186.411 288.747,186.451 288.540 C 186.491 288.332,186.490 288.032,186.448 287.873 C 186.406 287.714,186.374 287.883,186.375 288.250 M298.872 288.333 C 298.872 288.654,298.906 288.785,298.948 288.625 C 298.990 288.465,298.990 288.202,298.948 288.042 C 298.906 287.881,298.872 288.012,298.872 288.333 M120.372 289.333 C 120.372 289.654,120.406 289.785,120.448 289.625 C 120.490 289.465,120.490 289.202,120.448 289.042 C 120.406 288.881,120.372 289.012,120.372 289.333 M144.403 292.500 C 144.403 294.287,144.428 295.019,144.458 294.125 C 144.488 293.231,144.488 291.769,144.458 290.875 C 144.428 289.981,144.403 290.712,144.403 292.500 M222.402 292.917 C 222.401 294.475,222.426 295.135,222.457 294.383 C 222.488 293.631,222.488 292.356,222.458 291.550 C 222.427 290.743,222.402 291.358,222.402 292.917 M292.067 293.083 C 292.068 294.550,292.093 295.128,292.124 294.367 C 292.155 293.606,292.155 292.406,292.124 291.700 C 292.093 290.994,292.067 291.617,292.067 293.083 M107.375 291.750 C 107.377 292.117,107.411 292.247,107.451 292.040 C 107.491 291.832,107.490 291.532,107.448 291.373 C 107.406 291.214,107.374 291.383,107.375 291.750 M140.372 291.667 C 140.372 291.987,140.406 292.119,140.448 291.958 C 140.490 291.798,140.490 291.535,140.448 291.375 C 140.406 291.215,140.372 291.346,140.372 291.667 M193.039 291.667 C 193.039 291.987,193.073 292.119,193.115 291.958 C 193.157 291.798,193.157 291.535,193.115 291.375 C 193.073 291.215,193.039 291.346,193.039 291.667 M280.875 295.083 C 280.877 295.450,280.911 295.580,280.951 295.373 C 280.991 295.166,280.990 294.866,280.948 294.706 C 280.906 294.547,280.874 294.717,280.875 295.083 " stroke="none" fill="#3c9ad1" fill-rule="evenodd"></path><path id="path1" d="M255.527 91.880 C 255.195 92.336,254.641 93.175,253.914 94.317 C 253.387 95.146,252.740 96.094,252.652 96.167 C 252.596 96.212,252.519 96.325,252.481 96.417 C 252.299 96.856,251.267 98.333,251.142 98.333 C 251.064 98.333,251.000 98.400,251.000 98.481 C 251.000 98.670,249.637 100.732,249.463 100.806 C 249.390 100.837,249.374 100.930,249.425 101.014 C 249.477 101.098,249.456 101.167,249.378 101.167 C 249.300 101.167,249.018 101.542,248.750 102.000 C 248.482 102.458,248.204 102.833,248.132 102.833 C 248.059 102.833,248.000 102.905,248.000 102.992 C 248.000 103.188,246.979 104.729,246.798 104.806 C 246.726 104.836,246.667 104.921,246.667 104.995 C 246.667 105.174,245.296 107.235,245.129 107.306 C 245.057 107.337,245.040 107.430,245.092 107.514 C 245.144 107.598,245.123 107.667,245.045 107.667 C 244.967 107.667,244.684 108.042,244.417 108.500 C 244.149 108.958,243.871 109.333,243.798 109.333 C 243.726 109.333,243.667 109.405,243.667 109.492 C 243.667 109.688,242.646 111.229,242.465 111.306 C 242.393 111.336,242.333 111.421,242.333 111.495 C 242.333 111.674,240.962 113.735,240.796 113.806 C 240.724 113.837,240.707 113.930,240.759 114.014 C 240.811 114.098,240.789 114.167,240.712 114.167 C 240.634 114.167,240.351 114.542,240.083 115.000 C 239.816 115.458,239.537 115.833,239.465 115.833 C 239.393 115.833,239.333 115.900,239.333 115.981 C 239.333 116.216,238.134 118.000,237.976 118.000 C 237.898 118.000,237.833 118.071,237.833 118.158 C 237.833 118.304,236.888 119.807,236.675 120.000 C 236.625 120.046,236.492 120.233,236.380 120.417 C 235.491 121.873,234.900 122.782,234.725 122.961 C 234.611 123.077,234.350 123.471,234.145 123.836 C 233.940 124.201,233.711 124.500,233.636 124.500 C 233.561 124.500,233.500 124.571,233.500 124.658 C 233.500 124.804,232.554 126.307,232.342 126.500 C 232.291 126.546,232.158 126.733,232.047 126.917 C 231.158 128.373,230.566 129.282,230.391 129.461 C 230.278 129.577,230.017 129.971,229.812 130.336 C 229.607 130.701,229.377 131.000,229.303 131.000 C 229.228 131.000,229.167 131.071,229.167 131.158 C 229.167 131.304,228.221 132.807,228.009 133.000 C 227.958 133.046,227.827 133.233,227.716 133.417 C 227.606 133.600,227.219 134.213,226.856 134.778 L 226.195 135.807 227.139 136.544 C 227.659 136.949,228.413 137.498,228.815 137.762 L 229.548 138.242 229.815 137.832 C 229.963 137.606,230.386 137.045,230.756 136.586 C 231.127 136.126,231.797 135.225,232.246 134.583 C 232.696 133.942,233.180 133.294,233.323 133.143 C 233.466 132.993,233.881 132.449,234.245 131.935 C 234.609 131.421,234.965 131.000,235.037 131.000 C 235.108 131.000,235.168 130.906,235.169 130.792 C 235.171 130.677,235.405 130.321,235.691 130.000 C 235.976 129.679,236.397 129.135,236.627 128.792 C 236.856 128.448,237.109 128.167,237.189 128.167 C 237.268 128.167,237.333 128.072,237.333 127.957 C 237.333 127.841,237.503 127.560,237.711 127.332 C 237.919 127.103,238.458 126.392,238.909 125.750 C 239.360 125.108,239.828 124.523,239.948 124.450 C 240.068 124.377,240.167 124.214,240.167 124.089 C 240.167 123.964,240.230 123.836,240.308 123.806 C 240.385 123.775,240.737 123.337,241.090 122.833 C 241.443 122.329,241.848 121.794,241.991 121.643 C 242.133 121.493,242.548 120.949,242.912 120.435 C 243.276 119.921,243.632 119.500,243.703 119.500 C 243.775 119.500,243.833 119.405,243.833 119.290 C 243.833 119.174,244.003 118.893,244.211 118.665 C 244.419 118.437,244.958 117.725,245.409 117.083 C 245.860 116.442,246.328 115.857,246.448 115.783 C 246.568 115.710,246.667 115.541,246.667 115.408 C 246.667 115.275,246.723 115.166,246.792 115.165 C 246.860 115.164,247.289 114.639,247.744 113.998 C 248.198 113.357,248.630 112.833,248.702 112.833 C 248.774 112.833,248.833 112.721,248.833 112.583 C 248.833 112.446,248.890 112.333,248.960 112.333 C 249.029 112.333,249.417 111.846,249.821 111.250 C 250.225 110.654,250.618 110.167,250.694 110.167 C 250.771 110.167,250.833 110.083,250.833 109.980 C 250.833 109.878,251.062 109.522,251.343 109.189 C 252.398 107.934,252.500 107.802,252.500 107.692 C 252.500 107.631,252.683 107.383,252.907 107.141 C 253.131 106.900,253.268 106.657,253.212 106.601 C 253.157 106.546,253.186 106.500,253.278 106.500 C 253.370 106.500,253.808 105.975,254.250 105.333 C 254.692 104.692,255.117 104.167,255.194 104.167 C 255.271 104.167,255.333 104.054,255.333 103.917 C 255.333 103.779,255.390 103.667,255.460 103.667 C 255.529 103.667,255.917 103.179,256.321 102.583 C 256.725 101.987,257.118 101.500,257.194 101.500 C 257.271 101.500,257.333 101.416,257.333 101.314 C 257.333 101.211,257.562 100.855,257.843 100.522 C 258.887 99.281,259.000 99.136,259.000 99.045 C 259.000 98.993,259.278 98.612,259.618 98.197 C 261.866 95.454,261.888 95.390,260.875 94.661 C 258.928 93.260,257.795 92.500,257.653 92.500 C 257.569 92.500,257.500 92.438,257.500 92.363 C 257.500 92.220,256.220 91.330,256.027 91.338 C 255.966 91.340,255.741 91.584,255.527 91.880 M273.594 106.482 C 273.495 106.644,270.102 109.259,268.902 110.100 C 268.496 110.384,267.820 110.904,267.400 111.255 C 266.979 111.606,266.211 112.190,265.693 112.551 C 265.174 112.913,264.725 113.274,264.694 113.354 C 264.664 113.434,264.533 113.500,264.403 113.500 C 264.273 113.500,264.167 113.562,264.167 113.637 C 264.167 113.713,263.548 114.211,262.792 114.745 C 262.035 115.279,261.342 115.799,261.250 115.902 C 261.158 116.004,260.521 116.497,259.833 116.997 C 259.146 117.496,258.433 118.037,258.250 118.199 C 258.067 118.360,257.279 118.965,256.500 119.542 C 255.721 120.119,254.408 121.110,253.583 121.745 C 252.758 122.379,251.596 123.263,251.000 123.708 C 250.404 124.153,249.685 124.699,249.403 124.921 C 249.120 125.144,248.370 125.703,247.736 126.164 C 247.102 126.625,246.417 127.145,246.213 127.318 C 246.009 127.491,245.297 128.025,244.630 128.503 C 243.963 128.982,243.342 129.461,243.250 129.567 C 243.158 129.674,242.446 130.231,241.667 130.804 C 240.887 131.377,239.643 132.312,238.901 132.881 C 235.666 135.365,234.240 136.449,233.600 136.910 C 231.729 138.262,231.406 139.356,232.568 140.417 C 232.668 140.508,232.966 140.902,233.231 141.292 C 233.717 142.007,233.901 142.128,234.076 141.845 C 234.129 141.759,235.015 141.126,236.045 140.437 C 237.074 139.748,238.254 138.950,238.667 138.664 C 239.079 138.378,239.785 137.905,240.234 137.614 C 241.194 136.991,242.314 136.237,243.991 135.083 C 244.657 134.625,245.663 133.959,246.226 133.604 C 246.789 133.248,247.287 132.908,247.333 132.848 C 247.379 132.788,247.867 132.444,248.417 132.085 C 248.967 131.725,249.492 131.367,249.583 131.289 C 249.675 131.211,250.650 130.549,251.750 129.817 C 254.372 128.073,258.422 125.354,260.898 123.676 C 261.987 122.938,262.937 122.333,263.009 122.333 C 263.080 122.333,263.164 122.273,263.194 122.199 C 263.225 122.125,263.700 121.770,264.250 121.410 C 264.800 121.050,265.325 120.692,265.417 120.614 C 265.508 120.536,266.005 120.197,266.520 119.861 C 267.036 119.525,268.004 118.875,268.673 118.417 C 270.575 117.112,271.536 116.470,272.662 115.750 C 273.236 115.383,273.790 115.008,273.894 114.916 C 273.998 114.824,274.533 114.449,275.083 114.082 C 275.633 113.716,276.121 113.377,276.167 113.328 C 276.212 113.279,276.644 112.990,277.125 112.685 C 278.122 112.055,278.159 111.932,277.583 111.150 C 277.353 110.838,277.120 110.452,277.063 110.292 C 277.007 110.131,276.908 110.000,276.842 110.000 C 276.776 110.000,276.473 109.606,276.169 109.125 C 275.864 108.644,275.425 108.044,275.193 107.792 C 274.961 107.540,274.816 107.333,274.870 107.333 C 274.925 107.333,274.772 107.108,274.531 106.833 C 274.089 106.329,273.764 106.208,273.594 106.482 M166.882 160.792 C 166.965 166.561,167.012 167.410,167.325 168.750 C 167.517 169.575,167.705 170.475,167.742 170.750 C 167.778 171.025,167.935 171.622,168.089 172.077 C 168.244 172.532,168.393 173.057,168.420 173.243 C 168.466 173.551,169.289 175.927,169.635 176.750 C 169.930 177.450,170.536 178.771,170.783 179.250 C 171.453 180.549,172.241 181.958,172.523 182.359 C 172.694 182.602,172.833 182.877,172.833 182.970 C 172.833 183.063,172.897 183.164,172.975 183.194 C 173.096 183.242,173.564 183.898,174.250 184.979 C 174.342 185.124,174.496 185.319,174.592 185.413 C 174.688 185.507,175.061 185.958,175.420 186.417 C 178.679 190.579,183.741 194.630,188.667 197.017 C 191.086 198.190,191.368 198.315,191.882 198.443 C 192.530 198.605,190.369 198.783,187.333 198.818 C 186.279 198.830,184.329 198.953,183.000 199.092 C 181.671 199.230,179.871 199.408,179.000 199.488 C 174.798 199.874,173.159 200.692,175.000 201.484 C 175.844 201.847,176.524 201.963,180.417 202.408 C 187.354 203.201,212.866 203.668,222.667 203.181 C 235.369 202.550,240.333 201.915,240.333 200.922 C 240.333 200.701,240.260 200.475,240.171 200.419 C 239.735 200.150,237.268 199.633,235.768 199.496 C 234.841 199.412,232.996 199.229,231.667 199.091 C 230.338 198.953,228.606 198.838,227.818 198.837 C 224.556 198.829,222.214 198.629,222.841 198.412 C 224.901 197.699,230.051 194.982,230.750 194.240 C 230.842 194.142,231.358 193.767,231.898 193.406 C 233.002 192.668,233.297 192.416,236.025 189.885 C 237.093 188.894,237.975 188.006,237.984 187.912 C 237.993 187.817,238.266 187.489,238.592 187.182 C 238.917 186.875,239.477 186.192,239.836 185.663 C 240.195 185.135,240.603 184.587,240.744 184.446 C 240.885 184.306,241.000 184.110,241.000 184.012 C 241.000 183.914,241.066 183.833,241.148 183.833 C 241.229 183.833,241.412 183.587,241.555 183.286 C 241.698 182.986,241.967 182.563,242.154 182.348 C 242.340 182.133,242.457 181.898,242.412 181.826 C 242.368 181.754,242.397 181.670,242.478 181.639 C 242.628 181.582,244.761 177.622,244.688 177.537 C 244.666 177.512,244.792 177.174,244.968 176.787 C 245.366 175.909,245.722 174.915,246.351 172.917 C 246.553 172.275,246.736 171.600,246.757 171.417 C 246.778 171.233,246.949 170.408,247.136 169.583 C 247.656 167.291,247.848 164.887,247.952 159.375 L 248.048 154.333 243.541 154.333 L 239.035 154.333 238.954 159.542 C 238.909 162.406,238.788 165.275,238.683 165.917 C 238.373 167.821,237.820 170.193,237.482 171.064 C 237.309 171.512,237.167 171.966,237.167 172.074 C 237.167 172.182,237.008 172.599,236.814 173.001 C 236.620 173.403,236.447 173.810,236.430 173.907 C 236.413 174.004,236.257 174.346,236.084 174.667 C 235.912 174.987,235.585 175.625,235.357 176.083 C 235.130 176.542,234.788 177.142,234.597 177.417 C 234.407 177.692,234.250 177.962,234.250 178.017 C 234.250 178.073,234.117 178.298,233.954 178.517 C 233.792 178.737,233.354 179.348,232.983 179.875 C 232.611 180.402,232.233 180.833,232.144 180.833 C 232.054 180.833,232.023 180.902,232.075 180.987 C 232.127 181.071,231.982 181.288,231.752 181.469 C 231.522 181.650,231.333 181.842,231.333 181.895 C 231.333 182.100,228.421 184.898,227.352 185.719 C 225.650 187.027,225.404 187.203,224.458 187.781 C 223.449 188.398,219.929 190.167,219.710 190.167 C 219.629 190.167,219.252 190.317,218.873 190.500 C 218.493 190.683,218.076 190.833,217.945 190.833 C 217.814 190.833,217.442 190.944,217.118 191.080 C 213.070 192.771,202.904 192.800,197.667 191.134 C 195.285 190.376,192.104 188.968,190.583 187.996 C 190.308 187.821,189.873 187.558,189.616 187.413 C 185.624 185.158,180.713 179.427,178.472 174.411 C 177.626 172.516,177.513 172.225,177.115 170.907 C 175.915 166.936,175.874 166.592,175.731 159.542 L 175.626 154.333 171.208 154.333 L 166.790 154.333 166.882 160.792 M266.624 209.917 L 266.664 227.917 266.249 227.191 C 266.020 226.792,265.833 226.440,265.833 226.408 C 265.833 226.146,264.016 223.855,262.991 222.825 C 260.817 220.639,256.665 218.233,254.500 217.904 C 254.271 217.870,253.532 217.695,252.857 217.516 C 252.183 217.337,251.527 217.231,251.399 217.280 C 251.271 217.329,251.035 217.313,250.875 217.246 C 250.715 217.178,250.304 217.138,249.963 217.157 C 249.621 217.176,249.259 217.140,249.158 217.078 C 248.891 216.913,246.000 216.891,246.000 217.054 C 246.000 217.130,245.681 217.176,245.292 217.158 C 244.902 217.139,244.452 217.179,244.292 217.246 C 244.131 217.314,243.890 217.327,243.755 217.275 C 242.992 216.982,237.341 218.885,235.168 220.166 C 231.308 222.442,227.233 226.821,225.979 230.041 C 225.881 230.293,225.731 230.457,225.646 230.404 C 225.561 230.352,225.506 230.370,225.523 230.446 C 225.575 230.670,225.307 231.541,224.995 232.167 C 224.644 232.870,223.841 235.168,223.727 235.796 C 223.682 236.044,223.504 236.758,223.331 237.382 C 223.158 238.006,223.056 238.618,223.103 238.741 C 223.151 238.865,223.119 239.010,223.034 239.062 C 222.948 239.115,222.914 239.348,222.958 239.579 C 223.003 239.811,222.974 240.000,222.894 240.000 C 222.815 240.000,222.746 240.244,222.740 240.542 C 222.735 240.840,222.637 242.254,222.523 243.684 C 222.319 246.235,222.325 246.444,222.752 251.667 C 222.778 251.987,222.851 252.378,222.915 252.534 C 222.978 252.690,222.984 252.891,222.929 252.981 C 222.873 253.070,222.909 253.194,223.009 253.255 C 223.108 253.317,223.153 253.462,223.108 253.579 C 223.016 253.818,223.808 256.981,224.403 258.750 C 226.265 264.291,230.009 269.234,234.583 272.193 C 235.781 272.967,238.859 274.500,239.217 274.500 C 239.327 274.500,239.826 274.656,240.325 274.846 C 240.825 275.035,241.444 275.197,241.700 275.204 C 241.957 275.211,242.167 275.285,242.167 275.369 C 242.167 275.452,242.228 275.482,242.303 275.435 C 242.379 275.389,243.035 275.457,243.762 275.586 C 245.477 275.892,249.690 275.892,251.405 275.586 C 252.132 275.457,252.783 275.386,252.852 275.428 C 252.921 275.471,253.025 275.428,253.083 275.333 C 253.142 275.239,253.246 275.196,253.316 275.239 C 253.385 275.282,254.147 275.090,255.008 274.813 C 260.164 273.155,264.252 269.807,266.380 265.500 L 266.750 264.750 266.794 269.958 L 266.838 275.167 271.336 275.167 L 275.833 275.167 275.833 233.588 L 275.833 192.010 271.208 191.963 L 266.583 191.917 266.624 209.917 M290.667 233.583 L 290.667 275.167 295.250 275.167 L 299.833 275.167 299.833 233.583 L 299.833 192.000 295.250 192.000 L 290.667 192.000 290.667 233.583 M127.712 217.061 C 127.663 217.140,127.294 217.168,126.892 217.123 C 126.490 217.077,126.124 217.102,126.077 217.176 C 126.031 217.251,125.714 217.309,125.372 217.304 C 125.030 217.300,124.430 217.383,124.038 217.489 C 123.646 217.595,123.252 217.636,123.163 217.581 C 123.073 217.526,123.000 217.554,123.000 217.643 C 123.000 217.733,122.644 217.884,122.208 217.979 C 117.764 218.954,112.748 222.842,110.372 227.156 C 109.777 228.236,109.677 228.343,109.601 227.989 C 109.405 227.075,109.144 224.004,109.249 223.835 C 109.311 223.734,109.278 223.551,109.176 223.427 C 109.073 223.304,108.994 222.914,109.000 222.560 C 109.014 221.688,108.867 219.540,108.748 218.875 L 108.652 218.333 104.429 218.333 C 99.504 218.333,99.939 218.097,100.272 220.589 C 100.505 222.329,100.695 224.720,100.768 226.833 C 100.791 227.521,100.812 238.677,100.814 251.625 L 100.817 275.167 105.409 275.167 L 110.000 275.167 110.000 258.371 C 110.000 247.081,110.060 241.112,110.184 240.162 C 110.285 239.386,110.365 238.544,110.362 238.292 C 110.358 238.040,110.430 237.833,110.521 237.833 C 110.612 237.833,110.647 237.770,110.599 237.692 C 110.376 237.332,111.809 233.364,112.068 233.623 C 112.132 233.687,112.130 233.599,112.064 233.426 C 111.974 233.191,111.999 233.146,112.164 233.248 C 112.312 233.340,112.345 233.320,112.264 233.190 C 112.114 232.946,113.415 230.969,114.525 229.755 C 116.265 227.850,119.557 225.822,121.538 225.434 C 121.746 225.393,122.391 225.235,122.971 225.083 C 123.551 224.932,124.132 224.848,124.263 224.899 C 124.393 224.949,124.500 224.918,124.500 224.830 C 124.500 224.742,124.856 224.667,125.292 224.664 C 125.727 224.660,126.683 224.653,127.417 224.647 C 129.606 224.629,130.147 224.666,130.254 224.840 C 130.310 224.931,130.424 224.964,130.506 224.913 C 131.041 224.582,134.562 225.909,136.012 226.988 C 137.741 228.274,139.686 231.550,139.928 233.583 C 139.950 233.767,140.095 234.588,140.250 235.409 C 140.406 236.229,140.493 237.146,140.444 237.447 C 140.395 237.748,140.425 238.037,140.511 238.090 C 140.606 238.149,140.667 245.398,140.667 256.677 L 140.667 275.167 145.252 275.167 L 149.838 275.167 149.761 256.542 C 149.719 246.298,149.640 237.429,149.587 236.833 C 149.533 236.237,149.460 235.356,149.423 234.875 C 149.387 234.394,149.272 233.589,149.167 233.086 C 149.063 232.583,149.024 232.095,149.082 232.002 C 149.139 231.909,149.099 231.833,148.992 231.833 C 148.885 231.833,148.841 231.721,148.894 231.583 C 148.946 231.446,148.926 231.333,148.849 231.333 C 148.772 231.333,148.708 231.160,148.708 230.948 C 148.708 229.091,146.272 224.463,144.187 222.359 C 141.324 219.471,136.765 217.306,133.545 217.306 C 133.155 217.306,132.798 217.244,132.751 217.169 C 132.705 217.093,132.370 217.071,132.008 217.120 C 131.646 217.169,131.214 217.154,131.050 217.088 C 130.614 216.914,127.817 216.891,127.712 217.061 M185.942 217.045 C 185.837 217.115,185.447 217.158,185.077 217.139 C 184.706 217.119,184.331 217.147,184.243 217.199 C 184.155 217.251,183.783 217.293,183.417 217.293 C 182.641 217.292,179.992 217.885,178.667 218.356 C 178.162 218.535,177.637 218.708,177.500 218.741 C 174.375 219.493,168.937 223.642,166.343 227.255 C 164.268 230.143,161.625 236.319,161.625 238.278 C 161.625 238.495,161.558 238.714,161.476 238.765 C 161.395 238.815,161.365 238.916,161.410 238.989 C 161.455 239.063,161.379 239.714,161.240 240.436 C 160.672 243.402,160.677 249.398,161.252 252.443 C 161.405 253.253,161.549 254.142,161.572 254.417 C 161.685 255.765,162.770 258.925,164.099 261.781 C 164.576 262.806,164.937 263.687,164.900 263.739 C 164.863 263.791,164.879 263.800,164.935 263.759 C 164.991 263.719,165.443 264.285,165.939 265.018 C 167.397 267.172,169.813 269.715,171.500 270.870 C 171.729 271.027,172.254 271.394,172.666 271.685 C 174.555 273.020,179.911 275.208,181.288 275.208 C 181.500 275.208,181.709 275.267,181.753 275.339 C 181.797 275.410,181.984 275.430,182.167 275.382 C 182.350 275.334,182.500 275.359,182.500 275.439 C 182.500 275.606,182.574 275.611,186.644 275.762 C 188.820 275.843,190.144 275.813,191.227 275.659 C 192.065 275.539,192.938 275.423,193.167 275.401 C 193.396 275.379,193.583 275.346,193.583 275.328 C 193.583 275.310,193.789 275.271,194.040 275.241 C 196.988 274.891,201.952 272.449,205.115 269.793 C 208.064 267.318,211.811 261.794,212.409 259.040 C 212.480 258.716,212.599 258.542,212.706 258.608 C 212.804 258.668,212.842 258.649,212.790 258.565 C 212.696 258.413,212.815 257.889,213.469 255.555 C 213.654 254.898,213.763 254.318,213.712 254.267 C 213.661 254.216,213.704 254.072,213.808 253.947 C 213.912 253.822,213.961 253.684,213.918 253.640 C 213.874 253.596,213.956 252.928,214.099 252.155 C 214.526 249.855,214.601 244.683,214.245 242.000 C 214.081 240.762,213.927 239.563,213.904 239.333 C 213.880 239.104,213.845 238.879,213.827 238.833 C 213.809 238.787,213.800 238.702,213.807 238.644 C 213.815 238.586,213.672 238.023,213.491 237.394 C 213.310 236.765,213.121 236.027,213.072 235.753 C 213.022 235.480,212.849 234.955,212.686 234.587 C 212.523 234.218,212.336 233.701,212.270 233.438 C 212.026 232.465,210.269 229.117,209.229 227.645 C 207.150 224.701,205.192 222.832,202.065 220.804 C 201.333 220.329,198.250 218.831,197.833 218.748 C 197.696 218.721,197.184 218.540,196.695 218.347 C 196.207 218.153,195.532 217.959,195.196 217.916 C 194.860 217.873,194.559 217.762,194.528 217.668 C 194.497 217.574,194.410 217.536,194.334 217.583 C 194.258 217.630,193.691 217.562,193.073 217.432 C 192.455 217.303,191.848 217.235,191.725 217.283 C 191.601 217.330,191.369 217.314,191.208 217.246 C 191.048 217.179,190.600 217.139,190.212 217.157 C 189.825 217.176,189.424 217.139,189.320 217.075 C 189.059 216.914,186.178 216.888,185.942 217.045 M189.701 224.670 C 190.041 224.673,190.362 224.745,190.415 224.830 C 190.468 224.916,190.606 224.949,190.723 224.904 C 191.003 224.797,193.347 225.369,194.482 225.822 C 197.283 226.940,199.969 229.211,201.689 231.917 C 202.236 232.777,203.667 235.783,203.667 236.071 C 203.667 236.193,203.784 236.573,203.927 236.915 C 204.070 237.257,204.217 237.777,204.255 238.069 C 204.292 238.362,204.442 239.114,204.587 239.740 C 204.732 240.367,204.812 240.982,204.764 241.106 C 204.716 241.231,204.740 241.333,204.817 241.333 C 205.153 241.333,205.160 251.548,204.824 251.756 C 204.762 251.794,204.748 252.015,204.792 252.246 C 204.841 252.503,204.796 252.667,204.676 252.667 C 204.568 252.667,204.529 252.745,204.588 252.841 C 204.648 252.937,204.601 253.406,204.485 253.883 C 204.369 254.360,204.283 254.881,204.293 255.042 C 204.304 255.202,204.238 255.333,204.146 255.333 C 204.055 255.333,204.022 255.400,204.072 255.482 C 204.123 255.564,204.047 255.958,203.903 256.357 C 203.759 256.757,203.617 257.200,203.587 257.342 C 202.663 261.708,196.969 267.182,192.750 267.760 C 192.567 267.785,192.417 267.820,192.417 267.838 C 192.417 267.857,192.217 267.895,191.973 267.925 C 191.728 267.954,191.096 268.058,190.567 268.156 C 189.237 268.401,185.822 268.368,184.417 268.094 C 183.775 267.970,183.199 267.899,183.137 267.937 C 183.074 267.974,182.975 267.928,182.917 267.833 C 182.858 267.739,182.750 267.699,182.676 267.744 C 182.329 267.959,179.089 266.579,177.667 265.611 C 174.703 263.594,171.656 258.972,171.075 255.610 C 171.025 255.320,170.874 254.656,170.739 254.133 C 170.605 253.610,170.505 253.122,170.517 253.049 C 170.529 252.976,170.524 252.879,170.504 252.833 C 170.485 252.787,170.444 252.450,170.413 252.083 C 170.383 251.717,170.278 250.742,170.180 249.917 C 169.952 247.991,169.953 244.995,170.183 243.083 C 170.282 242.258,170.366 241.300,170.371 240.954 C 170.375 240.608,170.445 240.284,170.525 240.234 C 170.606 240.184,170.628 240.073,170.575 239.986 C 170.521 239.900,170.591 239.436,170.730 238.956 C 170.869 238.476,171.023 237.851,171.073 237.567 C 171.311 236.196,173.244 231.925,173.543 232.110 C 173.639 232.169,173.669 232.139,173.610 232.043 C 173.368 231.651,175.938 228.700,177.421 227.669 C 179.006 226.566,180.846 225.652,181.945 225.422 C 182.113 225.387,182.725 225.234,183.304 225.083 C 183.884 224.931,184.466 224.848,184.596 224.899 C 184.727 224.949,184.833 224.907,184.833 224.807 C 184.833 224.689,185.056 224.659,185.458 224.723 C 185.802 224.778,186.196 224.748,186.333 224.657 C 186.475 224.563,187.125 224.529,187.833 224.578 C 188.521 224.626,189.361 224.668,189.701 224.670 M251.448 224.665 C 251.832 224.665,252.193 224.742,252.251 224.835 C 252.309 224.929,252.423 224.964,252.505 224.914 C 252.718 224.782,254.953 225.303,255.796 225.681 C 256.188 225.856,256.604 226.000,256.720 226.000 C 257.123 226.000,259.671 227.689,260.694 228.633 C 262.940 230.708,265.221 234.719,265.756 237.538 C 265.796 237.746,265.946 238.386,266.089 238.961 C 266.233 239.535,266.304 240.079,266.249 240.169 C 266.193 240.259,266.228 240.333,266.326 240.333 C 266.425 240.333,266.495 240.540,266.483 240.792 C 266.470 241.044,266.558 242.432,266.678 243.877 C 266.858 246.048,266.858 246.945,266.676 249.044 C 266.554 250.440,266.462 251.787,266.471 252.036 C 266.479 252.285,266.421 252.529,266.342 252.578 C 266.263 252.627,266.237 252.817,266.285 253.000 C 266.336 253.194,266.290 253.333,266.176 253.333 C 266.069 253.333,266.026 253.407,266.081 253.496 C 266.136 253.586,266.095 253.979,265.989 254.371 C 265.883 254.763,265.779 255.233,265.758 255.417 C 265.138 260.740,258.850 267.288,253.750 267.921 C 253.383 267.966,252.676 268.078,252.178 268.168 C 251.029 268.378,247.803 268.382,246.716 268.176 C 246.260 268.090,245.549 267.978,245.137 267.929 C 239.688 267.275,233.688 260.939,232.585 254.675 C 232.536 254.396,232.380 253.669,232.239 253.061 C 232.098 252.452,232.021 251.852,232.069 251.727 C 232.117 251.602,232.097 251.500,232.026 251.500 C 231.654 251.500,231.668 241.288,232.040 241.059 C 232.112 241.014,232.127 240.903,232.071 240.814 C 232.016 240.724,232.103 240.073,232.266 239.367 C 232.428 238.661,232.544 237.990,232.523 237.875 C 232.502 237.760,232.568 237.667,232.669 237.667 C 232.770 237.667,232.814 237.603,232.765 237.525 C 232.717 237.447,232.888 236.791,233.145 236.066 C 234.940 231.014,237.939 227.726,242.532 225.776 C 243.382 225.415,246.122 224.786,246.317 224.907 C 246.405 224.961,246.528 224.922,246.591 224.821 C 246.657 224.714,246.923 224.677,247.227 224.732 C 247.515 224.785,247.862 224.752,248.000 224.660 C 248.144 224.563,248.780 224.528,249.500 224.578 C 250.188 224.626,251.064 224.665,251.448 224.665 M164.167 289.927 L 164.167 295.687 164.792 295.635 L 165.417 295.583 165.461 289.875 L 165.504 284.167 164.836 284.167 L 164.167 284.167 164.167 289.927 M173.167 289.917 L 173.167 295.667 173.833 295.667 L 174.500 295.667 174.511 294.875 C 174.518 294.295,174.558 294.172,174.658 294.417 C 174.848 294.878,175.739 295.500,176.210 295.500 C 176.424 295.500,176.688 295.588,176.797 295.697 C 176.943 295.843,177.091 295.846,177.372 295.710 C 177.580 295.609,177.944 295.484,178.181 295.433 C 179.936 295.056,181.075 291.726,180.097 289.833 C 178.964 287.641,176.576 287.058,175.035 288.598 C 174.722 288.911,174.455 289.167,174.442 289.167 C 174.428 289.167,174.439 288.042,174.467 286.667 L 174.517 284.167 173.842 284.167 L 173.167 284.167 173.167 289.917 M183.000 285.408 C 183.000 286.160,183.005 286.167,183.570 286.167 C 184.486 286.167,184.667 286.032,184.667 285.345 L 184.667 284.726 183.833 284.688 L 183.000 284.650 183.000 285.408 M211.333 285.417 L 211.333 286.167 212.000 286.167 L 212.667 286.167 212.667 285.417 L 212.667 284.667 212.000 284.667 L 211.333 284.667 211.333 285.417 M256.667 285.426 L 256.667 286.186 257.375 286.135 C 258.080 286.084,258.084 286.080,258.135 285.375 L 258.186 284.667 257.426 284.667 L 256.667 284.667 256.667 285.426 M188.458 285.718 C 188.035 285.884,188.000 285.968,188.000 286.824 L 188.000 287.750 187.292 287.750 C 186.614 287.750,186.581 287.774,186.531 288.292 C 186.479 288.831,186.482 288.833,187.239 288.833 L 188.000 288.833 188.000 291.189 C 188.000 294.265,188.445 295.525,189.553 295.591 C 189.661 295.597,189.886 295.664,190.053 295.740 C 190.237 295.824,190.509 295.796,190.745 295.669 C 190.960 295.554,191.217 295.511,191.317 295.574 C 191.435 295.646,191.500 295.504,191.500 295.177 C 191.500 294.888,191.410 294.660,191.292 294.652 C 191.177 294.644,190.805 294.634,190.465 294.631 C 189.407 294.621,189.322 294.391,189.284 291.443 L 189.250 288.847 190.333 288.798 C 191.415 288.750,191.417 288.749,191.417 288.250 C 191.417 287.753,191.409 287.750,190.383 287.701 L 189.349 287.651 189.299 286.630 C 189.246 285.532,189.162 285.441,188.458 285.718 M270.292 285.718 C 269.868 285.884,269.833 285.968,269.833 286.824 L 269.834 287.750 269.032 287.694 L 268.230 287.639 268.300 288.236 C 268.368 288.821,268.385 288.833,269.110 288.833 L 269.850 288.833 269.800 291.334 C 269.773 292.709,269.806 293.834,269.875 293.834 C 269.944 293.833,270.000 293.991,270.000 294.183 C 270.000 294.591,271.080 295.740,271.322 295.590 C 271.413 295.534,271.639 295.584,271.827 295.701 C 272.098 295.871,272.233 295.872,272.498 295.707 C 272.680 295.593,272.942 295.500,273.081 295.500 C 273.389 295.500,273.432 294.674,273.125 294.652 C 273.010 294.644,272.639 294.634,272.299 294.631 C 271.216 294.621,271.123 294.370,271.102 291.420 L 271.083 288.834 272.107 288.834 L 273.130 288.833 273.198 288.250 L 273.266 287.667 272.224 287.667 L 271.183 287.667 271.133 286.638 C 271.080 285.532,270.996 285.441,270.292 285.718 M295.875 285.748 C 295.367 285.969,295.333 286.035,295.333 286.825 L 295.333 287.667 294.686 287.667 C 294.093 287.667,294.032 287.709,293.964 288.168 C 293.871 288.800,293.910 288.833,294.736 288.833 L 295.417 288.833 295.363 291.125 C 295.293 294.164,295.769 295.500,296.923 295.500 C 297.149 295.500,297.333 295.575,297.333 295.667 C 297.333 295.758,297.479 295.833,297.657 295.833 C 297.835 295.833,298.027 295.758,298.083 295.667 C 298.140 295.575,298.337 295.500,298.521 295.500 C 298.787 295.500,298.845 295.407,298.803 295.046 C 298.753 294.617,298.708 294.595,297.976 294.641 C 296.765 294.717,296.667 294.473,296.667 291.380 L 296.667 288.833 297.750 288.833 L 298.833 288.833 298.833 288.250 L 298.833 287.667 297.750 287.667 L 296.667 287.667 296.667 286.583 C 296.667 285.405,296.667 285.404,295.875 285.748 M101.408 287.848 C 101.346 287.948,101.379 288.113,101.481 288.215 C 101.609 288.343,101.667 290.008,101.667 293.617 L 101.667 298.833 102.250 298.833 L 102.833 298.833 102.839 296.458 C 102.844 294.481,102.880 294.145,103.051 294.454 C 103.362 295.013,104.300 295.644,104.675 295.546 C 104.854 295.499,105.000 295.545,105.000 295.647 C 105.000 295.886,105.612 295.890,105.759 295.652 C 105.821 295.552,106.015 295.509,106.191 295.555 C 106.671 295.680,107.856 294.702,108.296 293.817 C 110.232 289.925,106.102 285.739,103.266 288.718 C 102.640 289.376,102.618 289.384,102.702 288.947 C 102.749 288.697,102.724 288.452,102.644 288.403 C 102.565 288.354,102.500 288.168,102.500 287.990 C 102.500 287.628,101.615 287.513,101.408 287.848 M113.453 287.953 C 112.965 288.116,112.451 288.451,112.128 288.818 C 111.838 289.147,111.535 289.396,111.455 289.371 C 111.374 289.346,111.351 289.394,111.403 289.478 C 111.455 289.562,111.386 289.899,111.249 290.227 C 110.407 292.243,111.890 295.479,113.678 295.527 C 113.901 295.533,114.252 295.617,114.458 295.714 C 114.735 295.844,114.942 295.831,115.250 295.667 C 115.479 295.544,115.713 295.491,115.771 295.549 C 116.107 295.885,117.672 294.805,117.546 294.324 C 117.440 293.920,117.311 293.920,116.520 294.323 C 114.597 295.304,112.695 294.435,112.256 292.375 L 112.140 291.833 114.967 291.833 L 117.794 291.833 117.882 291.375 C 117.930 291.124,117.911 290.880,117.839 290.834 C 117.766 290.788,117.656 290.443,117.593 290.067 C 117.295 288.282,115.388 287.308,113.453 287.953 M120.395 288.042 C 120.450 288.248,120.496 290.048,120.498 292.042 L 120.500 295.667 121.167 295.667 L 121.833 295.667 121.833 292.901 C 121.833 289.354,122.401 288.392,124.284 288.745 C 124.805 288.843,124.833 288.823,124.833 288.352 C 124.833 287.406,123.207 287.557,122.230 288.593 L 121.702 289.153 121.591 288.410 C 121.483 287.690,121.461 287.667,120.887 287.667 C 120.354 287.667,120.305 287.704,120.395 288.042 M128.306 287.929 C 126.179 288.584,126.138 291.564,128.250 291.931 C 130.850 292.383,131.751 293.145,130.892 294.165 C 130.302 294.867,128.272 294.835,127.170 294.105 C 126.780 293.848,126.511 293.717,126.572 293.815 C 126.633 293.913,126.602 294.143,126.504 294.325 C 126.263 294.777,127.402 295.564,128.250 295.532 C 128.564 295.520,128.865 295.583,128.920 295.672 C 129.059 295.896,129.833 295.875,129.833 295.647 C 129.833 295.538,130.008 295.495,130.258 295.542 C 130.793 295.645,131.650 295.087,131.996 294.413 C 132.136 294.140,132.309 293.873,132.381 293.820 C 132.542 293.701,131.967 292.318,131.648 292.054 C 131.389 291.841,129.651 291.231,128.925 291.099 C 127.428 290.828,127.312 289.236,128.761 288.830 C 129.608 288.593,130.719 288.814,131.408 289.357 C 131.799 289.664,131.802 289.663,131.970 289.180 C 132.335 288.135,130.107 287.375,128.306 287.929 M137.417 287.826 C 135.924 288.220,134.657 289.501,134.814 290.458 C 134.833 290.573,134.765 290.667,134.664 290.667 C 134.563 290.667,134.517 290.725,134.561 290.797 C 134.605 290.869,134.664 291.469,134.691 292.130 C 134.718 292.792,134.790 293.333,134.852 293.333 C 134.913 293.333,135.008 293.510,135.062 293.726 C 135.207 294.301,136.572 295.500,137.082 295.500 C 137.314 295.500,137.649 295.590,137.825 295.700 C 138.078 295.858,138.234 295.854,138.557 295.681 C 138.783 295.560,139.039 295.505,139.126 295.558 C 139.924 296.052,141.898 293.294,141.852 291.750 C 141.773 289.126,139.640 287.238,137.417 287.826 M144.395 288.042 C 144.450 288.248,144.496 290.048,144.498 292.042 L 144.500 295.667 145.167 295.667 L 145.833 295.667 145.833 292.846 C 145.833 289.626,145.959 289.287,147.322 288.837 C 148.496 288.450,150.091 289.256,149.776 290.077 C 149.724 290.212,149.753 290.367,149.841 290.421 C 149.931 290.477,150.000 291.636,150.000 293.093 L 150.000 295.667 150.492 295.667 L 150.985 295.667 151.034 292.792 C 151.061 291.210,151.017 289.869,150.937 289.810 C 150.856 289.752,150.834 289.633,150.888 289.546 C 151.047 289.289,150.226 288.230,149.719 288.038 C 148.353 287.520,146.775 287.808,146.120 288.694 C 145.801 289.125,145.344 289.387,145.582 289.003 C 145.898 288.490,145.465 287.667,144.879 287.667 C 144.354 287.667,144.305 287.705,144.395 288.042 M156.167 287.941 C 154.116 288.647,153.222 291.346,154.268 293.677 C 154.708 294.658,155.610 295.500,156.220 295.500 C 156.376 295.500,156.644 295.587,156.814 295.693 C 157.004 295.812,157.243 295.831,157.436 295.744 C 157.760 295.598,157.933 295.552,158.291 295.519 C 158.406 295.509,158.799 295.229,159.166 294.897 L 159.833 294.295 159.833 294.981 C 159.833 295.654,159.844 295.667,160.417 295.667 L 161.000 295.667 161.000 291.667 L 161.000 287.667 160.417 287.667 C 159.833 287.667,159.833 287.667,159.833 288.444 C 159.833 288.872,159.790 289.178,159.736 289.125 C 159.683 289.072,159.664 288.991,159.694 288.946 C 159.811 288.773,158.783 288.119,158.048 287.898 C 157.118 287.618,157.104 287.618,156.167 287.941 M183.167 291.677 L 183.167 295.687 183.792 295.635 L 184.417 295.583 184.461 291.625 L 184.506 287.667 183.836 287.667 L 183.167 287.667 183.167 291.677 M195.871 287.905 C 194.591 288.316,193.193 289.773,193.446 290.432 C 193.495 290.561,193.471 290.667,193.393 290.667 C 193.224 290.666,193.243 292.553,193.415 292.831 C 193.480 292.936,193.491 293.064,193.440 293.116 C 193.289 293.267,193.767 294.062,194.363 294.649 C 194.987 295.265,195.739 295.706,195.896 295.549 C 195.953 295.491,196.188 295.544,196.417 295.667 C 196.725 295.831,196.931 295.844,197.208 295.714 C 197.415 295.617,197.755 295.534,197.964 295.529 C 198.432 295.518,199.501 294.878,199.497 294.611 C 199.490 294.018,199.186 293.909,198.545 294.269 C 196.398 295.475,194.453 294.158,194.564 291.573 C 194.679 288.886,196.727 287.836,198.875 289.363 C 199.202 289.596,199.334 289.626,199.336 289.470 C 199.337 289.349,199.383 289.082,199.438 288.877 C 199.636 288.137,197.208 287.475,195.871 287.905 M203.902 287.971 C 200.895 289.010,200.630 293.869,203.500 295.334 C 203.844 295.509,204.172 295.605,204.230 295.548 C 204.287 295.491,204.526 295.547,204.761 295.672 C 205.109 295.859,205.250 295.862,205.527 295.689 C 205.713 295.572,205.905 295.516,205.954 295.565 C 206.116 295.727,207.288 295.019,207.735 294.487 C 210.362 291.365,207.611 286.688,203.902 287.971 M211.464 291.667 L 211.512 295.667 212.172 295.667 L 212.833 295.667 212.833 291.867 C 212.833 287.747,212.816 287.667,211.925 287.667 L 211.417 287.666 211.464 291.667 M215.500 287.917 C 215.500 288.054,215.575 288.167,215.667 288.167 C 215.773 288.167,215.833 289.528,215.833 291.917 L 215.833 295.667 216.417 295.667 L 217.000 295.667 217.011 293.375 C 217.028 289.636,217.147 289.287,218.553 288.850 C 220.609 288.212,221.060 288.886,221.138 292.708 L 221.199 295.667 221.766 295.667 L 222.333 295.667 222.333 292.785 C 222.333 290.128,222.304 289.847,221.958 289.164 C 221.083 287.437,218.577 287.252,217.195 288.812 C 216.904 289.140,216.832 289.171,216.907 288.935 C 217.099 288.332,216.645 287.667,216.043 287.667 C 215.671 287.667,215.500 287.746,215.500 287.917 M232.167 287.941 C 230.564 288.492,229.772 289.954,229.864 292.187 C 229.893 292.892,229.960 293.441,230.013 293.409 C 230.066 293.376,230.241 293.647,230.401 294.011 C 230.702 294.693,231.681 295.500,232.208 295.500 C 232.371 295.500,232.654 295.593,232.836 295.707 C 233.101 295.872,233.236 295.870,233.516 295.695 C 233.708 295.575,233.905 295.517,233.954 295.565 C 234.109 295.721,234.946 295.196,235.397 294.660 L 235.833 294.141 235.833 294.904 C 235.833 295.640,235.851 295.667,236.333 295.667 L 236.833 295.667 236.833 291.667 L 236.833 287.667 236.333 287.667 C 235.849 287.667,235.833 287.691,235.833 288.444 C 235.833 288.872,235.790 289.178,235.736 289.125 C 235.683 289.072,235.664 288.991,235.694 288.946 C 235.811 288.773,234.783 288.119,234.048 287.898 C 233.118 287.618,233.104 287.618,232.167 287.941 M242.083 287.829 C 240.608 288.209,240.000 288.845,240.000 290.010 C 240.000 290.825,240.920 291.893,241.677 291.956 C 242.631 292.035,244.059 292.598,244.374 293.021 C 245.379 294.367,242.785 295.256,240.807 294.244 C 240.006 293.834,239.833 293.894,239.833 294.583 C 239.833 294.938,240.981 295.555,241.597 295.532 C 241.903 295.520,242.198 295.583,242.253 295.672 C 242.387 295.888,243.119 295.878,243.255 295.659 C 243.314 295.563,243.487 295.496,243.640 295.511 C 243.792 295.526,244.010 295.530,244.125 295.519 C 244.367 295.497,245.667 294.356,245.635 294.193 C 245.623 294.133,245.673 293.947,245.746 293.780 C 245.890 293.449,245.631 292.811,245.109 292.214 C 244.802 291.863,243.303 291.272,242.271 291.096 C 241.571 290.977,241.167 290.537,241.167 289.895 C 241.167 288.625,243.567 288.285,244.787 289.382 L 245.156 289.715 245.333 289.251 C 245.575 288.614,245.240 288.278,244.023 287.936 C 242.981 287.644,242.835 287.636,242.083 287.829 M250.250 287.815 C 247.894 288.413,247.641 291.536,249.917 291.931 C 251.971 292.289,252.796 292.749,252.765 293.521 C 252.718 294.673,250.648 295.074,249.073 294.236 L 248.321 293.836 248.180 294.210 C 247.950 294.816,248.902 295.563,249.869 295.535 C 250.121 295.528,250.371 295.592,250.424 295.678 C 250.476 295.763,250.698 295.833,250.917 295.833 C 251.135 295.833,251.357 295.763,251.410 295.678 C 251.463 295.592,251.726 295.529,251.996 295.536 C 253.584 295.582,254.550 293.177,253.369 292.118 C 253.081 291.860,251.436 291.252,250.630 291.106 C 249.925 290.978,249.511 290.685,249.397 290.233 C 249.048 288.841,250.933 288.240,252.748 289.166 C 253.103 289.347,253.403 289.477,253.414 289.456 C 253.425 289.434,253.564 289.210,253.722 288.957 C 253.880 288.704,253.951 288.509,253.880 288.524 C 253.808 288.540,253.412 288.396,253.000 288.206 C 252.122 287.802,250.956 287.636,250.250 287.815 M256.797 291.667 L 256.845 295.667 257.506 295.667 L 258.167 295.667 258.167 291.667 L 258.167 287.667 257.458 287.667 L 256.750 287.666 256.797 291.667 M262.752 287.912 C 260.522 288.511,260.462 291.772,262.677 291.956 C 263.633 292.035,265.059 292.598,265.375 293.023 C 266.358 294.339,263.656 295.255,261.762 294.248 L 261.040 293.864 260.857 294.265 C 260.625 294.773,261.669 295.560,262.541 295.535 C 262.834 295.527,263.174 295.604,263.298 295.706 C 263.463 295.844,263.668 295.840,264.079 295.691 C 264.385 295.580,264.699 295.501,264.776 295.515 C 265.317 295.610,266.205 294.905,266.605 294.061 C 267.212 292.783,265.800 291.528,263.271 291.096 C 262.571 290.977,262.167 290.537,262.167 289.895 C 262.167 288.625,264.567 288.285,265.787 289.382 L 266.156 289.715 266.333 289.250 C 266.430 288.995,266.557 288.702,266.615 288.601 C 266.673 288.500,266.658 288.473,266.582 288.542 C 266.506 288.611,266.325 288.562,266.180 288.433 C 265.485 287.816,263.970 287.585,262.752 287.912 M277.640 287.829 C 274.777 288.694,274.099 293.037,276.510 295.066 C 277.032 295.506,277.185 295.562,277.708 295.509 C 277.869 295.492,278.000 295.559,278.000 295.656 C 278.000 295.885,278.614 295.887,278.755 295.659 C 278.814 295.563,278.987 295.496,279.140 295.511 C 279.655 295.562,279.781 295.501,280.383 294.917 C 281.125 294.196,281.106 294.193,281.029 295.000 C 280.965 295.666,280.965 295.667,281.566 295.667 L 282.167 295.667 282.167 291.667 L 282.167 287.667 281.567 287.667 L 280.966 287.667 281.026 288.417 C 281.059 288.829,281.074 289.167,281.060 289.167 C 281.045 289.167,280.779 288.912,280.467 288.601 C 279.687 287.820,278.627 287.531,277.640 287.829 M285.228 288.042 C 285.284 288.248,285.330 290.048,285.331 292.042 L 285.333 295.667 285.989 295.667 L 286.645 295.667 286.698 292.753 C 286.758 289.400,286.838 289.214,288.385 288.804 C 290.295 288.299,290.810 289.194,290.824 293.042 L 290.833 295.667 291.326 295.667 L 291.818 295.667 291.872 292.792 C 291.935 289.481,291.739 288.721,290.666 288.094 C 289.557 287.446,287.742 287.777,286.897 288.782 L 286.543 289.201 286.428 288.434 C 286.316 287.687,286.297 287.667,285.720 287.667 C 285.187 287.667,285.138 287.704,285.228 288.042 M106.431 289.077 C 107.925 290.056,107.877 293.634,106.359 294.397 C 105.000 295.081,103.384 294.456,103.005 293.100 C 102.169 290.116,104.263 287.657,106.431 289.077 M115.539 288.909 C 116.154 289.166,116.582 289.688,116.761 290.399 L 116.869 290.833 114.601 290.833 C 112.138 290.833,112.155 290.842,112.612 289.879 C 113.087 288.880,114.415 288.439,115.539 288.909 M139.171 288.938 C 139.844 289.207,140.640 290.305,140.420 290.661 C 140.369 290.743,140.404 290.857,140.497 290.915 C 140.713 291.049,140.721 292.500,140.505 292.500 C 140.416 292.500,140.384 292.606,140.434 292.735 C 140.904 293.959,138.442 295.131,136.960 294.389 C 136.460 294.138,135.758 292.937,135.898 292.573 C 135.946 292.447,135.914 292.300,135.826 292.246 C 135.645 292.134,135.609 291.280,135.778 291.111 C 135.838 291.050,135.910 290.798,135.936 290.551 C 136.085 289.152,137.697 288.348,139.171 288.938 M158.380 288.894 C 160.045 289.598,160.377 292.862,158.915 294.146 C 157.735 295.182,155.540 294.552,155.210 293.083 C 154.547 290.130,156.185 287.965,158.380 288.894 M178.087 289.071 C 179.530 290.016,179.497 293.659,178.039 294.389 C 176.650 295.085,175.019 294.470,174.651 293.113 C 173.835 290.094,175.915 287.647,178.087 289.071 M206.025 288.903 C 207.333 289.450,207.836 291.173,207.249 293.095 C 206.627 295.128,203.292 295.183,202.913 293.167 C 202.870 292.938,202.790 292.514,202.735 292.225 C 202.304 289.947,204.124 288.109,206.025 288.903 M234.500 288.966 C 235.550 289.477,236.065 291.172,235.671 292.816 C 235.028 295.494,231.437 295.246,231.102 292.500 C 230.760 289.689,232.425 287.957,234.500 288.966 M279.637 288.924 C 281.342 289.606,281.513 293.567,279.873 294.389 C 277.758 295.449,275.771 293.564,276.306 291.006 C 276.706 289.094,278.015 288.275,279.637 288.924 " stroke="none" fill="#fbfbfb" fill-rule="evenodd"></path><path id="path2" d="M299.915 233.583 C 299.915 256.500,299.935 265.850,299.958 254.362 C 299.982 242.873,299.982 224.123,299.958 212.695 C 299.935 201.267,299.915 210.667,299.915 233.583 M130.986 217.052 C 131.061 217.128,131.414 217.164,131.770 217.133 L 132.417 217.076 131.633 216.996 C 131.202 216.952,130.910 216.977,130.986 217.052 M185.500 217.000 C 185.157 217.110,185.142 217.136,185.417 217.148 C 185.600 217.155,185.862 217.089,186.000 217.000 C 186.292 216.811,186.089 216.811,185.500 217.000 M189.309 217.042 C 189.393 217.126,189.639 217.167,189.856 217.133 C 190.189 217.080,190.166 217.057,189.703 216.980 C 189.372 216.925,189.216 216.950,189.309 217.042 M249.142 217.042 C 249.226 217.126,249.472 217.167,249.689 217.133 C 250.023 217.080,249.999 217.057,249.536 216.980 C 249.205 216.925,249.050 216.950,249.142 217.042 M122.250 217.833 C 122.040 217.924,122.009 217.977,122.167 217.977 C 122.304 217.977,122.567 217.912,122.750 217.833 C 122.960 217.743,122.991 217.690,122.833 217.690 C 122.696 217.690,122.433 217.755,122.250 217.833 M114.000 222.417 C 113.595 222.829,113.301 223.167,113.347 223.167 C 113.393 223.167,113.762 222.829,114.167 222.417 C 114.572 222.004,114.865 221.667,114.819 221.667 C 114.774 221.667,114.405 222.004,114.000 222.417 M109.000 222.823 C 109.000 223.093,109.059 223.350,109.132 223.395 C 109.204 223.440,109.234 223.219,109.197 222.905 C 109.115 222.205,109.000 222.157,109.000 222.823 M230.324 223.792 L 229.750 224.417 230.375 223.842 C 230.957 223.308,231.077 223.167,230.949 223.167 C 230.922 223.167,230.640 223.448,230.324 223.792 M112.573 223.875 L 112.083 224.417 112.625 223.927 C 112.923 223.658,113.167 223.414,113.167 223.385 C 113.167 223.257,113.029 223.370,112.573 223.875 M126.788 224.620 C 127.084 224.657,127.609 224.658,127.955 224.622 C 128.300 224.586,128.058 224.555,127.417 224.555 C 126.775 224.554,126.492 224.583,126.788 224.620 M187.042 224.621 C 187.385 224.657,187.948 224.657,188.292 224.621 C 188.635 224.585,188.354 224.556,187.667 224.556 C 186.979 224.556,186.698 224.585,187.042 224.621 M248.045 224.635 C 247.933 224.707,248.345 224.739,248.962 224.707 C 250.570 224.623,250.770 224.541,249.417 224.522 C 248.775 224.513,248.158 224.564,248.045 224.635 M129.333 224.731 C 129.333 224.767,129.554 224.828,129.825 224.868 C 130.095 224.907,130.278 224.878,130.231 224.803 C 130.149 224.670,129.333 224.604,129.333 224.731 M251.333 224.731 C 251.333 224.767,251.554 224.828,251.825 224.868 C 252.095 224.907,252.278 224.878,252.231 224.803 C 252.149 224.670,251.333 224.604,251.333 224.731 M243.250 225.500 C 243.040 225.590,243.009 225.643,243.167 225.643 C 243.304 225.643,243.567 225.579,243.750 225.500 C 243.960 225.410,243.991 225.357,243.833 225.357 C 243.696 225.357,243.433 225.421,243.250 225.500 M100.717 226.500 C 100.717 227.004,100.748 227.210,100.786 226.958 C 100.824 226.706,100.824 226.294,100.786 226.042 C 100.748 225.790,100.717 225.996,100.717 226.500 M135.333 226.552 C 135.333 226.593,135.609 226.837,135.945 227.094 C 136.282 227.350,136.504 227.475,136.440 227.371 C 136.308 227.158,135.333 226.436,135.333 226.552 M260.000 228.052 C 260.000 228.081,260.244 228.325,260.542 228.594 L 261.083 229.083 260.594 228.542 C 260.138 228.037,260.000 227.923,260.000 228.052 M100.890 229.917 C 100.891 230.650,100.920 230.929,100.956 230.537 C 100.991 230.145,100.990 229.545,100.954 229.204 C 100.919 228.863,100.890 229.183,100.890 229.917 M261.167 229.219 C 261.167 229.248,261.410 229.491,261.708 229.760 L 262.250 230.250 261.760 229.708 C 261.304 229.203,261.167 229.090,261.167 229.219 M139.695 233.175 C 139.792 233.455,139.903 233.653,139.941 233.615 C 140.023 233.532,139.709 232.667,139.596 232.667 C 139.553 232.667,139.597 232.895,139.695 233.175 M149.550 237.000 C 149.550 237.504,149.581 237.710,149.619 237.458 C 149.658 237.206,149.658 236.794,149.619 236.542 C 149.581 236.290,149.550 236.496,149.550 237.000 M140.500 256.633 L 140.583 275.250 140.626 256.759 C 140.649 246.589,140.612 238.212,140.542 238.142 C 140.473 238.073,140.454 246.394,140.500 256.633 M160.860 243.917 C 160.843 244.283,160.790 244.771,160.743 245.000 L 160.657 245.417 160.836 245.006 C 160.935 244.780,160.988 244.293,160.954 243.923 L 160.892 243.250 160.860 243.917 M160.879 248.833 C 160.879 249.246,160.911 249.415,160.951 249.208 C 160.991 249.002,160.991 248.665,160.951 248.458 C 160.911 248.252,160.879 248.421,160.879 248.833 M161.332 253.743 C 161.408 254.082,161.516 254.405,161.570 254.459 C 161.719 254.608,161.477 253.440,161.324 253.271 C 161.252 253.191,161.255 253.404,161.332 253.743 M265.528 255.825 C 265.430 256.105,265.386 256.333,265.429 256.333 C 265.542 256.333,265.856 255.468,265.774 255.385 C 265.736 255.347,265.625 255.545,265.528 255.825 M213.157 256.609 C 213.065 256.852,213.013 257.124,213.043 257.213 C 213.073 257.303,213.181 257.104,213.283 256.771 C 213.498 256.073,213.406 255.954,213.157 256.609 M199.491 263.958 L 198.917 264.583 199.542 264.009 C 200.123 263.474,200.243 263.333,200.116 263.333 C 200.088 263.333,199.807 263.615,199.491 263.958 M254.083 267.759 L 253.583 267.986 254.083 267.886 C 254.620 267.779,254.763 267.707,254.653 267.599 C 254.615 267.561,254.358 267.633,254.083 267.759 M244.181 267.727 C 244.219 267.759,244.475 267.837,244.750 267.898 C 245.115 267.980,245.183 267.964,245.000 267.841 C 244.775 267.689,244.013 267.582,244.181 267.727 M237.500 273.917 C 237.729 274.048,237.992 274.155,238.083 274.155 C 238.175 274.155,238.063 274.048,237.833 273.917 C 237.604 273.786,237.342 273.678,237.250 273.678 C 237.158 273.678,237.271 273.786,237.500 273.917 M178.750 274.667 C 178.933 274.745,179.196 274.810,179.333 274.810 C 179.491 274.810,179.460 274.757,179.250 274.667 C 179.067 274.588,178.804 274.523,178.667 274.523 C 178.509 274.523,178.540 274.576,178.750 274.667 M239.333 274.619 C 239.471 274.670,239.733 274.781,239.917 274.865 C 240.245 275.016,240.245 275.014,239.926 274.759 C 239.749 274.617,239.486 274.506,239.343 274.513 C 239.119 274.525,239.117 274.539,239.333 274.619 M187.292 275.951 C 187.498 275.991,187.835 275.991,188.042 275.951 C 188.248 275.911,188.079 275.879,187.667 275.879 C 187.254 275.879,187.085 275.911,187.292 275.951 M247.292 275.951 C 247.498 275.991,247.835 275.991,248.042 275.951 C 248.248 275.911,248.079 275.879,247.667 275.879 C 247.254 275.879,247.085 275.911,247.292 275.951 M212.714 285.417 C 212.716 285.875,212.748 286.043,212.786 285.789 C 212.825 285.536,212.824 285.161,212.784 284.956 C 212.744 284.751,212.713 284.958,212.714 285.417 M258.141 285.417 C 258.108 285.829,258.138 286.167,258.207 286.167 C 258.277 286.167,258.333 285.829,258.333 285.417 C 258.333 285.004,258.303 284.667,258.267 284.667 C 258.230 284.667,258.173 285.004,258.141 285.417 M236.905 291.667 C 236.905 293.912,236.929 294.831,236.958 293.708 C 236.987 292.585,236.987 290.748,236.958 289.625 C 236.929 288.502,236.905 289.421,236.905 291.667 M183.072 291.667 C 183.072 293.821,183.095 294.702,183.124 293.625 C 183.153 292.548,183.153 290.785,183.124 289.708 C 183.095 288.631,183.072 289.512,183.072 291.667 M211.405 291.750 C 211.405 293.950,211.429 294.827,211.458 293.699 C 211.487 292.571,211.487 290.771,211.458 289.699 C 211.429 288.627,211.405 289.550,211.405 291.750 M220.917 288.028 C 221.100 288.130,221.366 288.297,221.508 288.398 C 221.650 288.500,221.590 288.415,221.374 288.208 C 221.158 288.002,220.892 287.836,220.782 287.838 C 220.673 287.841,220.733 287.927,220.917 288.028 M273.205 288.333 C 273.205 288.654,273.240 288.785,273.282 288.625 C 273.323 288.465,273.323 288.202,273.282 288.042 C 273.240 287.881,273.205 288.012,273.205 288.333 M276.643 288.177 L 276.250 288.520 276.750 288.227 C 277.408 287.842,277.418 287.833,277.213 287.833 C 277.116 287.833,276.860 287.988,276.643 288.177 M107.167 288.219 C 107.167 288.248,107.410 288.491,107.708 288.760 L 108.250 289.250 107.760 288.708 C 107.304 288.203,107.167 288.090,107.167 288.219 M174.750 288.667 C 174.487 288.942,174.341 289.163,174.427 289.157 C 174.574 289.149,175.433 288.167,175.294 288.167 C 175.258 288.167,175.013 288.392,174.750 288.667 M178.833 288.219 C 178.833 288.248,179.077 288.491,179.375 288.760 L 179.917 289.250 179.427 288.708 C 178.971 288.203,178.833 288.090,178.833 288.219 M215.738 291.917 C 215.738 294.025,215.762 294.865,215.791 293.782 C 215.820 292.700,215.820 290.975,215.791 289.949 C 215.762 288.923,215.738 289.808,215.738 291.917 M101.574 293.583 C 101.574 296.517,101.597 297.693,101.625 296.198 C 101.652 294.702,101.652 292.302,101.625 290.865 C 101.597 289.427,101.574 290.650,101.574 293.583 M112.054 288.708 C 111.868 288.915,111.657 289.196,111.584 289.333 C 111.443 289.599,111.481 289.562,112.157 288.792 C 112.377 288.540,112.521 288.333,112.475 288.333 C 112.429 288.333,112.240 288.502,112.054 288.708 M206.681 289.436 C 206.902 289.722,207.117 289.926,207.158 289.890 C 207.199 289.853,207.018 289.619,206.755 289.370 L 206.279 288.917 206.681 289.436 M248.278 289.111 C 247.942 289.447,248.181 290.677,248.686 291.206 L 249.205 291.750 248.755 291.179 C 248.380 290.703,248.314 290.474,248.361 289.804 C 248.392 289.362,248.410 289.000,248.403 289.000 C 248.395 289.000,248.339 289.050,248.278 289.111 M117.608 290.167 C 117.739 290.885,117.834 291.021,117.831 290.486 C 117.829 290.265,117.754 289.971,117.664 289.833 C 117.549 289.657,117.532 289.756,117.608 290.167 M116.523 290.000 C 116.523 290.137,116.588 290.400,116.667 290.583 C 116.757 290.793,116.810 290.824,116.810 290.667 C 116.810 290.529,116.745 290.267,116.667 290.083 C 116.576 289.873,116.523 289.842,116.523 290.000 M151.068 292.833 C 151.068 294.346,151.093 294.965,151.124 294.208 C 151.155 293.452,151.155 292.215,151.124 291.458 C 151.093 290.702,151.068 291.321,151.068 292.833 M291.902 292.917 C 291.901 294.475,291.926 295.135,291.957 294.383 C 291.988 293.631,291.988 292.356,291.958 291.550 C 291.927 290.743,291.902 291.358,291.902 292.917 M149.833 293.050 L 149.916 295.750 149.962 293.179 C 149.988 291.766,149.951 290.551,149.879 290.479 C 149.808 290.408,149.787 291.564,149.833 293.050 M290.735 293.000 C 290.735 294.512,290.760 295.131,290.791 294.375 C 290.822 293.619,290.822 292.381,290.791 291.625 C 290.760 290.869,290.735 291.487,290.735 293.000 M140.497 291.716 L 140.577 292.583 140.633 291.852 C 140.663 291.450,140.627 291.060,140.552 290.985 C 140.478 290.911,140.453 291.240,140.497 291.716 M193.217 291.667 C 193.217 292.171,193.248 292.377,193.286 292.125 C 193.324 291.873,193.324 291.460,193.286 291.208 C 193.248 290.956,193.217 291.162,193.217 291.667 M135.778 291.111 C 135.626 291.263,135.637 292.129,135.792 292.224 C 135.860 292.267,135.917 292.009,135.917 291.651 C 135.917 291.293,135.910 291.000,135.903 291.000 C 135.895 291.000,135.839 291.050,135.778 291.111 M217.066 293.250 C 217.066 294.533,217.092 295.036,217.124 294.368 C 217.156 293.699,217.155 292.649,217.123 292.034 C 217.091 291.420,217.065 291.967,217.066 293.250 M275.048 291.750 C 275.049 292.208,275.081 292.376,275.120 292.123 C 275.158 291.869,275.157 291.494,275.117 291.289 C 275.078 291.084,275.046 291.292,275.048 291.750 M276.209 291.750 C 276.211 292.117,276.245 292.247,276.285 292.040 C 276.324 291.832,276.323 291.532,276.281 291.373 C 276.239 291.214,276.207 291.383,276.209 291.750 M128.253 292.004 C 128.294 292.072,128.515 292.162,128.742 292.206 C 128.970 292.250,129.122 292.230,129.081 292.162 C 129.039 292.095,128.819 292.004,128.591 291.961 C 128.363 291.917,128.211 291.937,128.253 292.004 M132.195 293.009 C 132.292 293.288,132.403 293.486,132.441 293.448 C 132.523 293.366,132.209 292.500,132.096 292.500 C 132.053 292.500,132.097 292.729,132.195 293.009 M174.814 293.612 C 175.025 294.028,175.789 294.669,176.064 294.662 C 176.166 294.659,176.100 294.577,175.917 294.479 C 175.733 294.382,175.369 294.065,175.107 293.776 C 174.790 293.426,174.692 293.371,174.814 293.612 M132.167 294.061 C 132.167 294.186,132.009 294.505,131.817 294.769 L 131.467 295.250 131.900 294.782 C 132.283 294.369,132.481 293.833,132.250 293.833 C 132.204 293.833,132.167 293.936,132.167 294.061 M199.238 294.095 C 199.382 294.239,199.506 294.483,199.513 294.637 C 199.521 294.795,199.562 294.830,199.607 294.718 C 199.709 294.468,199.380 293.833,199.149 293.833 C 199.054 293.833,199.094 293.951,199.238 294.095 M275.631 294.252 C 275.725 294.436,275.978 294.736,276.193 294.917 C 276.570 295.236,276.569 295.230,276.169 294.749 C 275.505 293.949,275.450 293.898,275.631 294.252 " stroke="none" fill="#bab7b6" fill-rule="evenodd"></path><path id="path3" d="M226.375 149.250 C 226.377 149.617,226.411 149.747,226.451 149.540 C 226.491 149.332,226.490 149.032,226.448 148.873 C 226.406 148.714,226.374 148.883,226.375 149.250 M199.042 154.917 C 199.044 155.283,199.078 155.414,199.118 155.206 C 199.158 154.999,199.156 154.699,199.115 154.540 C 199.073 154.380,199.040 154.550,199.042 154.917 M266.538 209.583 C 266.510 221.066,266.438 227.162,266.333 227.000 C 266.236 226.850,266.171 226.829,266.169 226.948 C 266.165 227.243,266.489 227.389,266.586 227.136 C 266.632 227.015,266.650 219.042,266.625 209.417 L 266.582 191.917 266.538 209.583 M128.875 216.948 C 129.035 216.990,129.298 216.990,129.458 216.948 C 129.619 216.906,129.487 216.872,129.167 216.872 C 128.846 216.872,128.715 216.906,128.875 216.948 M187.375 216.948 C 187.535 216.990,187.798 216.990,187.958 216.948 C 188.119 216.906,187.987 216.872,187.667 216.872 C 187.346 216.872,187.215 216.906,187.375 216.948 M247.294 216.951 C 247.501 216.991,247.801 216.990,247.960 216.948 C 248.120 216.906,247.950 216.874,247.583 216.875 C 247.217 216.877,247.086 216.911,247.294 216.951 M168.661 224.292 L 167.750 225.250 168.708 224.339 C 169.599 223.493,169.743 223.333,169.619 223.333 C 169.593 223.333,169.162 223.765,168.661 224.292 M206.250 224.000 C 206.608 224.367,206.938 224.667,206.984 224.667 C 207.030 224.667,206.775 224.367,206.417 224.000 C 206.059 223.633,205.728 223.333,205.682 223.333 C 205.637 223.333,205.892 223.633,206.250 224.000 M126.375 224.782 C 126.535 224.823,126.798 224.823,126.958 224.782 C 127.119 224.740,126.987 224.705,126.667 224.705 C 126.346 224.705,126.215 224.740,126.375 224.782 M248.375 224.782 C 248.535 224.823,248.798 224.823,248.958 224.782 C 249.119 224.740,248.987 224.705,248.667 224.705 C 248.346 224.705,248.215 224.740,248.375 224.782 M249.794 224.785 C 250.001 224.824,250.301 224.823,250.460 224.781 C 250.620 224.739,250.450 224.707,250.083 224.709 C 249.717 224.711,249.586 224.745,249.794 224.785 M109.372 225.667 C 109.372 225.987,109.406 226.119,109.448 225.958 C 109.490 225.798,109.490 225.535,109.448 225.375 C 109.406 225.215,109.372 225.346,109.372 225.667 M198.993 228.875 C 199.684 229.611,199.833 229.743,199.833 229.618 C 199.833 229.591,199.477 229.235,199.042 228.826 L 198.250 228.083 198.993 228.875 M140.372 238.667 C 140.372 238.987,140.406 239.119,140.448 238.958 C 140.490 238.798,140.490 238.535,140.448 238.375 C 140.406 238.215,140.372 238.346,140.372 238.667 M110.080 258.417 C 110.080 267.675,110.100 271.487,110.125 266.888 C 110.150 262.288,110.150 254.713,110.125 250.054 C 110.100 245.395,110.080 249.158,110.080 258.417 M222.372 243.833 C 222.372 244.154,222.406 244.285,222.448 244.125 C 222.490 243.965,222.490 243.702,222.448 243.542 C 222.406 243.381,222.372 243.512,222.372 243.833 M231.731 246.167 C 231.731 247.313,231.758 247.781,231.790 247.208 C 231.823 246.635,231.823 245.698,231.790 245.125 C 231.758 244.552,231.731 245.021,231.731 246.167 M170.063 246.500 C 170.063 247.554,170.090 247.985,170.123 247.458 C 170.156 246.931,170.156 246.069,170.123 245.542 C 170.090 245.015,170.063 245.446,170.063 246.500 M205.060 246.500 C 205.060 247.371,205.088 247.727,205.123 247.292 C 205.157 246.856,205.157 246.144,205.123 245.708 C 205.088 245.273,205.060 245.629,205.060 246.500 M214.557 246.417 C 214.558 247.150,214.587 247.429,214.622 247.037 C 214.657 246.645,214.657 246.045,214.621 245.704 C 214.585 245.363,214.557 245.683,214.557 246.417 M266.725 246.500 C 266.725 247.279,266.754 247.598,266.789 247.208 C 266.824 246.819,266.824 246.181,266.789 245.792 C 266.754 245.402,266.725 245.721,266.725 246.500 M222.372 248.500 C 222.372 248.821,222.406 248.952,222.448 248.792 C 222.490 248.631,222.490 248.369,222.448 248.208 C 222.406 248.048,222.372 248.179,222.372 248.500 M266.643 265.208 C 266.610 265.323,266.623 267.629,266.670 270.333 L 266.758 275.250 266.795 270.125 C 266.830 265.400,266.807 264.635,266.643 265.208 M230.500 269.083 C 231.091 269.679,231.611 270.167,231.657 270.167 C 231.703 270.167,231.257 269.679,230.667 269.083 C 230.076 268.487,229.555 268.000,229.510 268.000 C 229.464 268.000,229.909 268.487,230.500 269.083 M186.044 268.286 C 186.297 268.325,186.672 268.324,186.877 268.284 C 187.082 268.244,186.875 268.213,186.417 268.214 C 185.958 268.216,185.791 268.248,186.044 268.286 M188.544 268.286 C 188.797 268.325,189.172 268.324,189.377 268.284 C 189.582 268.244,189.375 268.213,188.917 268.214 C 188.458 268.216,188.291 268.248,188.544 268.286 M247.877 268.286 C 248.131 268.325,248.506 268.324,248.711 268.284 C 248.916 268.244,248.708 268.213,248.250 268.214 C 247.792 268.216,247.624 268.248,247.877 268.286 M250.211 268.286 C 250.464 268.325,250.839 268.324,251.044 268.284 C 251.249 268.244,251.042 268.213,250.583 268.214 C 250.125 268.216,249.957 268.248,250.211 268.286 M185.794 275.951 C 186.001 275.991,186.301 275.990,186.460 275.948 C 186.620 275.906,186.450 275.874,186.083 275.875 C 185.717 275.877,185.586 275.911,185.794 275.951 M188.875 275.948 C 189.035 275.990,189.298 275.990,189.458 275.948 C 189.619 275.906,189.487 275.872,189.167 275.872 C 188.846 275.872,188.715 275.906,188.875 275.948 M245.875 275.948 C 246.035 275.990,246.298 275.990,246.458 275.948 C 246.619 275.906,246.487 275.872,246.167 275.872 C 245.846 275.872,245.715 275.906,245.875 275.948 M248.708 275.948 C 248.869 275.990,249.131 275.990,249.292 275.948 C 249.452 275.906,249.321 275.872,249.000 275.872 C 248.679 275.872,248.548 275.906,248.708 275.948 M164.075 289.917 C 164.075 293.125,164.097 294.414,164.125 292.781 C 164.152 291.148,164.152 288.523,164.125 286.948 C 164.097 285.372,164.075 286.708,164.075 289.917 M182.881 285.417 C 182.882 285.875,182.915 286.043,182.953 285.789 C 182.991 285.536,182.990 285.161,182.951 284.956 C 182.911 284.751,182.880 284.958,182.881 285.417 M256.548 285.417 C 256.549 285.875,256.581 286.043,256.620 285.789 C 256.658 285.536,256.657 285.161,256.617 284.956 C 256.578 284.751,256.546 284.958,256.548 285.417 M187.887 286.833 C 187.887 287.429,187.917 287.673,187.954 287.375 C 187.991 287.077,187.991 286.590,187.954 286.292 C 187.917 285.994,187.887 286.237,187.887 286.833 M159.714 288.417 C 159.716 288.875,159.748 289.043,159.786 288.789 C 159.825 288.536,159.824 288.161,159.784 287.956 C 159.744 287.751,159.713 287.958,159.714 288.417 M235.714 288.417 C 235.716 288.875,235.748 289.043,235.786 288.789 C 235.825 288.536,235.824 288.161,235.784 287.956 C 235.744 287.751,235.713 287.958,235.714 288.417 M282.239 291.667 C 282.239 293.912,282.262 294.831,282.291 293.708 C 282.320 292.585,282.320 290.748,282.291 289.625 C 282.262 288.502,282.239 289.421,282.239 291.667 M161.072 291.750 C 161.072 293.950,161.096 294.827,161.125 293.699 C 161.153 292.571,161.153 290.771,161.124 289.699 C 161.095 288.627,161.072 289.550,161.072 291.750 M237.072 291.750 C 237.072 293.950,237.096 294.827,237.125 293.699 C 237.153 292.571,237.153 290.771,237.124 289.699 C 237.095 288.627,237.072 289.550,237.072 291.750 M268.193 288.375 L 268.167 289.000 269.042 288.970 L 269.917 288.940 269.135 288.878 C 268.396 288.819,268.349 288.786,268.287 288.283 C 268.222 287.769,268.219 287.772,268.193 288.375 M144.372 288.833 C 144.372 289.154,144.406 289.285,144.448 289.125 C 144.490 288.965,144.490 288.702,144.448 288.542 C 144.406 288.381,144.372 288.512,144.372 288.833 M186.708 288.953 C 186.960 288.991,187.373 288.991,187.625 288.953 C 187.877 288.915,187.671 288.883,187.167 288.883 C 186.662 288.883,186.456 288.915,186.708 288.953 M189.788 288.954 C 190.084 288.990,190.609 288.991,190.955 288.955 C 191.300 288.919,191.058 288.889,190.417 288.888 C 189.775 288.887,189.492 288.917,189.788 288.954 M271.621 288.954 C 271.917 288.990,272.442 288.991,272.788 288.955 C 273.134 288.919,272.892 288.889,272.250 288.888 C 271.608 288.887,271.325 288.917,271.621 288.954 M294.211 288.953 C 294.464 288.991,294.839 288.990,295.044 288.951 C 295.249 288.911,295.042 288.880,294.583 288.881 C 294.125 288.882,293.957 288.915,294.211 288.953 M297.208 288.955 C 297.552 288.991,298.115 288.991,298.458 288.955 C 298.802 288.919,298.521 288.889,297.833 288.889 C 297.146 288.889,296.865 288.919,297.208 288.955 M187.899 291.333 C 187.899 292.571,187.925 293.077,187.957 292.458 C 187.989 291.840,187.989 290.827,187.957 290.208 C 187.925 289.590,187.899 290.096,187.899 291.333 M149.734 293.167 C 149.734 294.587,149.759 295.169,149.791 294.458 C 149.822 293.748,149.822 292.585,149.791 291.875 C 149.759 291.165,149.734 291.746,149.734 293.167 M159.712 291.667 C 159.712 292.079,159.745 292.248,159.784 292.042 C 159.824 291.835,159.824 291.498,159.784 291.292 C 159.745 291.085,159.712 291.254,159.712 291.667 M207.379 291.667 C 207.379 292.079,207.411 292.248,207.451 292.042 C 207.491 291.835,207.491 291.498,207.451 291.292 C 207.411 291.085,207.379 291.254,207.379 291.667 M229.714 291.750 C 229.716 292.208,229.748 292.376,229.786 292.123 C 229.825 291.869,229.824 291.494,229.784 291.289 C 229.744 291.084,229.713 291.292,229.714 291.750 M135.872 291.667 C 135.872 291.987,135.906 292.119,135.948 291.958 C 135.990 291.798,135.990 291.535,135.948 291.375 C 135.906 291.215,135.872 291.346,135.872 291.667 M153.709 291.750 C 153.711 292.117,153.745 292.247,153.785 292.040 C 153.824 291.832,153.823 291.532,153.781 291.373 C 153.739 291.214,153.707 291.383,153.709 291.750 M235.705 291.667 C 235.705 291.987,235.740 292.119,235.782 291.958 C 235.823 291.798,235.823 291.535,235.782 291.375 C 235.740 291.215,235.705 291.346,235.705 291.667 M253.437 292.167 C 253.632 292.396,253.832 292.696,253.882 292.833 C 253.961 293.047,253.976 293.046,253.987 292.821 C 253.994 292.676,253.794 292.376,253.542 292.154 L 253.083 291.750 253.437 292.167 M159.712 295.000 C 159.712 295.412,159.745 295.581,159.784 295.375 C 159.824 295.169,159.824 294.831,159.784 294.625 C 159.745 294.419,159.712 294.587,159.712 295.000 M235.712 295.000 C 235.712 295.412,235.745 295.581,235.784 295.375 C 235.824 295.169,235.824 294.831,235.784 294.625 C 235.745 294.419,235.712 294.587,235.712 295.000 M114.542 294.615 C 114.702 294.657,114.965 294.657,115.125 294.615 C 115.285 294.573,115.154 294.539,114.833 294.539 C 114.513 294.539,114.381 294.573,114.542 294.615 M129.042 294.615 C 129.202 294.657,129.465 294.657,129.625 294.615 C 129.785 294.573,129.654 294.539,129.333 294.539 C 129.012 294.539,128.881 294.573,129.042 294.615 M242.460 294.618 C 242.668 294.658,242.968 294.656,243.127 294.615 C 243.286 294.573,243.117 294.540,242.750 294.542 C 242.383 294.544,242.253 294.578,242.460 294.618 M250.708 294.615 C 250.869 294.657,251.131 294.657,251.292 294.615 C 251.452 294.573,251.321 294.539,251.000 294.539 C 250.679 294.539,250.548 294.573,250.708 294.615 M263.460 294.618 C 263.668 294.658,263.968 294.656,264.127 294.615 C 264.286 294.573,264.117 294.540,263.750 294.542 C 263.383 294.544,263.253 294.578,263.460 294.618 " stroke="none" fill="#a29c9c" fill-rule="evenodd"></path><path id="path4" d="M211.212 285.333 C 211.212 285.746,211.245 285.915,211.284 285.708 C 211.324 285.502,211.324 285.165,211.284 284.958 C 211.245 284.752,211.212 284.921,211.212 285.333 M269.717 286.833 C 269.717 287.337,269.748 287.544,269.786 287.292 C 269.824 287.040,269.824 286.627,269.786 286.375 C 269.748 286.123,269.717 286.329,269.717 286.833 M256.738 291.667 C 256.738 293.729,256.762 294.573,256.791 293.542 C 256.820 292.510,256.820 290.823,256.791 289.792 C 256.762 288.760,256.738 289.604,256.738 291.667 M269.732 291.250 C 269.733 292.533,269.759 293.036,269.791 292.368 C 269.822 291.699,269.822 290.649,269.790 290.034 C 269.758 289.420,269.732 289.967,269.732 291.250 M221.067 293.083 C 221.067 294.458,221.093 294.999,221.124 294.284 C 221.155 293.569,221.155 292.444,221.124 291.784 C 221.092 291.124,221.066 291.708,221.067 293.083 " stroke="none" fill="#a6a4a4" fill-rule="evenodd"></path></g></svg>